<?xml version="1.0" encoding="UTF-8" standalone="no"?>
<svg width="52px" height="61px" viewBox="0 0 52 61" version="1.1" xmlns="http://www.w3.org/2000/svg" xmlns:xlink="http://www.w3.org/1999/xlink" xmlns:sketch="http://www.bohemiancoding.com/sketch/ns">
    <!-- Generator: Sketch 3.3.3 (12072) - http://www.bohemiancoding.com/sketch -->
    <title>noun_123297_cc</title>
    <desc>Created with Sketch.</desc>
    <defs></defs>
    <g id="Page-1" stroke="none" stroke-width="1" fill="none" fill-rule="evenodd" sketch:type="MSPage">
        <g id="noun_123297_cc" sketch:type="MSLayerGroup" fill="#E4B341">
            <g id="Group" sketch:type="MSShapeGroup">
                <path d="M2.951,21.732 L23.095,25.413 C20.963,34.266 15.771,40.941 10.793,40.941 C10.481,40.941 10.168,40.914 9.864,40.857 C7.371,40.402 5.281,38.103 3.977,34.384 C2.717,30.792 2.364,26.359 2.951,21.732 L2.951,21.732 Z M1.29,19.395 C-0.853,31.114 2.826,41.605 9.504,42.826 C9.932,42.904 10.362,42.941 10.793,42.941 C17.08,42.941 23.472,34.784 25.477,23.815 L1.29,19.395 L1.29,19.395 Z" id="Shape"></path>
                <rect id="Rectangle-path" transform="translate(8.117563, 50.394026) rotate(10.352507) translate(-8.117563, -50.394026) " x="7.11758361" y="42.3501953" width="1.99995778" height="16.0876604"></rect>
                <rect id="Rectangle-path" transform="translate(6.675717, 58.307263) rotate(10.358143) translate(-6.675717, -58.307263) " x="1.89123215" y="57.307766" width="9.56897" height="1.99899373"></rect>
                <g transform="translate(26.000000, 20.000000)">
                    <path d="M23.215,2.815 C23.956,12.514 20.569,20.895 15.389,21.585 C15.164,21.615 14.936,21.63 14.708,21.63 C9.718,21.63 4.654,14.567 2.92,5.518 L23.215,2.815 L23.215,2.815 Z M24.988,0.561 L0.616,3.807 C2.116,15.064 8.302,23.63 14.707,23.63 C15.021,23.63 15.336,23.609 15.65,23.567 C22.381,22.67 26.563,12.37 24.988,0.561 L24.988,0.561 L24.988,0.561 Z" id="Shape"></path>
                    <rect id="Rectangle-path" transform="translate(16.666632, 31.198405) rotate(82.415200) translate(-16.666632, -31.198405) " x="8.62223086" y="30.1983553" width="16.0888019" height="2.00009969"></rect>
                    <rect id="Rectangle-path" transform="translate(17.725976, 39.167691) rotate(82.426559) translate(-17.725976, -39.167691) " x="16.7259521" y="34.3825791" width="2.00004693" height="9.57022456"></rect>
                </g>
                <rect id="Rectangle-path" transform="translate(10.283414, 14.552771) rotate(44.943280) translate(-10.283414, -14.552771) " x="5.1849607" y="13.5527805" width="10.1969072" height="1.9999818"></rect>
                <rect id="Rectangle-path" transform="translate(12.862123, 9.010267) rotate(57.471679) translate(-12.862123, -9.010267) " x="8.06426988" y="8.01029745" width="9.59570684" height="1.9999389"></rect>
                <rect id="Rectangle-path" transform="translate(19.986513, 9.010147) rotate(70.225923) translate(-19.986513, -9.010147) " x="14.7457018" y="8.01018336" width="10.4816221" height="1.99992789"></rect>
                <rect id="Rectangle-path" transform="translate(26.845661, 5.908155) rotate(87.690383) translate(-26.845661, -5.908155) " x="21.1335907" y="4.90814274" width="11.4241413" height="2.00002473"></rect>
                <rect id="Rectangle-path" transform="translate(33.339659, 9.010932) rotate(20.346818) translate(-33.339659, -9.010932) " x="32.3396648" y="3.7509604" width="1.99998905" height="10.5199424"></rect>
                <rect id="Rectangle-path" transform="translate(39.584405, 10.755675) rotate(39.094693) translate(-39.584405, -10.755675) " x="38.5839117" y="5.86520514" width="2.00098756" height="9.78093921"></rect>
                <rect id="Rectangle-path" transform="translate(39.193534, 17.443451) rotate(60.658789) translate(-39.193534, -17.443451) " x="38.1930539" y="13.4610285" width="2.00096087" height="7.96484424"></rect>
                <rect id="Rectangle-path" x="1.968" y="28.237" width="21.009" height="2"></rect>
                <rect id="Rectangle-path" x="29.079" y="28.237" width="21.008" height="2"></rect>
            </g>
        </g>
    </g>
</svg>