<?xml version="1.0" encoding="UTF-8" standalone="no"?>
<svg width="95px" height="105px" viewBox="0 0 95 105" version="1.1" xmlns="http://www.w3.org/2000/svg" xmlns:xlink="http://www.w3.org/1999/xlink" xmlns:sketch="http://www.bohemiancoding.com/sketch/ns">
    <!-- Generator: Sketch 3.2.2 (9983) - http://www.bohemiancoding.com/sketch -->
    <title>gulet_icon</title>
    <desc>Created with Sketch.</desc>
    <defs></defs>
    <g id="Page-1" stroke="none" stroke-width="1" fill="none" fill-rule="evenodd" sketch:type="MSPage">
        <g id="gulet_icon" sketch:type="MSLayerGroup" transform="translate(2.000000, 2.000000)" stroke-width="4" stroke="#F4BB3B">
            <g id="Page-1" sketch:type="MSShapeGroup">
                <g id="gulet_icon">
                    <path d="M39.4908305,100.285947 L68.0107387,0.175352865 L69.9392898,0.232512235 C70.023218,0.248214707 70.4839243,0.182579558 71.2392782,0.323901806 C74.5964062,0.952000686 82.7874948,3.85098041 87.2254612,17.131406 C89.784651,24.5944225 90.7225202,34.3352195 89.9944082,45.8899493 C89.1538856,59.7011068 86.0242119,76.2724197 80.6035894,95.299891 L79.2073684,100.200907 L39.4908305,100.285947 L39.4908305,100.285947 Z" id="Shape-2"></path>
                    <path d="M0.768303284,99.8554443 L22.4672619,20.225583 L23.8739887,20.2576856 C23.9350726,20.2696335 24.2719322,20.2139973 24.8216879,20.3215286 C27.2650468,20.7994457 33.2126551,23.0565172 36.3154115,33.6284972 C38.1066373,39.5690282 38.6914648,47.339522 38.0420455,56.5699554 C37.2875348,67.6027145 34.8343635,80.8552526 30.684327,96.0848699 L29.6153782,100.00765 L0.768303284,99.8554443 L0.768303284,99.8554443 Z" id="Shape-2"></path>
                </g>
            </g>
        </g>
    </g>
</svg>