<?xml version="1.0" encoding="UTF-8" standalone="no"?>
<svg width="61px" height="61px" viewBox="0 0 61 61" version="1.1" xmlns="http://www.w3.org/2000/svg" xmlns:xlink="http://www.w3.org/1999/xlink" xmlns:sketch="http://www.bohemiancoding.com/sketch/ns">
    <!-- Generator: Sketch 3.3.3 (12072) - http://www.bohemiancoding.com/sketch -->
    <title>Shape</title>
    <desc>Created with Sketch.</desc>
    <defs></defs>
    <g id="Page-1" stroke="none" stroke-width="1" fill="none" fill-rule="evenodd" sketch:type="MSPage">
        <g id="noun_10918_cc" sketch:type="MSLayerGroup" fill="#4A90E2">
            <path d="M41.5716061,0.684 C31.1975542,0.684 22.7873122,9.09424205 22.7873122,19.4688939 C22.7873122,23.6707149 24.1829191,27.5191342 26.5133308,30.6475498 L1.55260598,53.6690649 C-0.0422019935,55.2632729 -0.0422019935,57.893686 1.55260598,59.487894 C3.14741395,61.082702 5.72622685,61.082702 7.32043482,59.487894 L30.3419499,34.5265692 C33.4739656,36.8647809 37.362585,38.2531878 41.5716061,38.2531878 C51.9462579,38.2531878 60.3565,29.8423458 60.3565,19.4682939 C60.3565,9.09424205 51.9462579,0.684 41.5716061,0.684 L41.5716061,0.684 Z M41.5716061,3.95101634 C50.1420489,3.95101634 57.0894837,10.8984511 57.0894837,19.4688939 C57.0894837,28.0393368 50.1420489,34.9861715 41.5716061,34.9861715 C33.0011632,34.9861715 26.0543285,28.0387368 26.0543285,19.4688939 C26.0543285,10.8990511 33.0011632,3.95101634 41.5716061,3.95101634 L41.5716061,3.95101634 Z" id="Shape" sketch:type="MSShapeGroup"></path>
        </g>
    </g>
</svg>