<?xml version="1.0" encoding="UTF-8"?>
<svg width="150px" height="100px" viewBox="0 0 150 100" version="1.1" xmlns="http://www.w3.org/2000/svg" xmlns:xlink="http://www.w3.org/1999/xlink">
    <!-- Generator: Sketch 40.3 (33839) - http://www.bohemiancoding.com/sketch -->
    <title>antarctic</title>
    <desc>Created with Sketch.</desc>
    <defs></defs>
    <g id="Page-1" stroke="none" stroke-width="1" fill="none" fill-rule="evenodd">
        <g id="antarctic" fill="#F4BB3B">
            <g id="noun_703293_cc" transform="translate(36.000000, 1.000000)">
                <g id="Group">
                    <path d="M54.7158158,95.2519167 L54.7158158,95.2519167 C54.7158158,95.2519167 57.0265658,96.432 57.9080395,95.06 C58.7915921,93.6869792 57.2251053,92.7161667 57.2251053,92.7161667 L57.2251053,92.7151458 L54.4413947,90.9899375 L39.4615395,93.4440208 L40.0415658,96.8576875 L53.6971316,94.6220625 L54.7158158,95.2519167 L54.7158158,95.2519167 Z" id="Shape"></path>
                    <path d="M7.51123684,91.7749583 C7.51123684,91.7749583 5.20152632,94.4444375 9.23260526,93.9227917 C13.2626447,93.3991042 7.24513158,95.6265625 6.85325,95.43975 C6.46136842,95.2539583 4.82419737,94.1371667 4.69738158,93.9227917 C4.57160526,93.7084167 4.69738158,93.2755833 4.69738158,93.2755833" id="Shape"></path>
                    <g>
                        <ellipse id="Oval" cx="56.5016316" cy="10.7881667" rx="2.43132895" ry="2.38772917"></ellipse>
                        <path d="M74.0697763,8.78120833 C69.2684474,5.31139583 61.4505658,0.879958333 52.6535,0.879958333 C46.1942105,0.879958333 40.2619342,3.276875 35.0188289,8.04008333 C26.1801842,16.0730208 24.8278289,27.1010833 23.2634211,39.8839583 C21.33,55.6588958 19.1429474,73.4275208 2.79306579,91.9168542 C2.77331579,91.9413542 2.75980263,91.9597292 2.74109211,91.9842292 C-1.04675,96.7015 1.62781579,97.6467917 3.40635526,97.810125 C7.13806579,97.736625 14.0183421,97.1588333 20.4973816,94.2872292 C20.7530921,94.1790208 21.1418553,94.0044583 21.6356053,93.7543542 C23.0004342,93.0867292 24.3361579,92.3108958 25.6105526,91.4074583 C26.6167632,91.5718125 28.4805395,91.807625 30.8817237,91.807625 C32.0791974,91.807625 33.2818684,91.7453542 34.4689474,91.6289792 C35.1726711,94.7996875 37.2536974,97.0128542 39.7515526,97.0128542 C42.8595789,97.0128542 45.2961053,93.5889792 45.2961053,89.2320625 C45.2961053,89.0585208 45.2919474,88.8655833 45.2825921,88.69 C51.0194474,86.03175 55.7438553,81.7044375 59.3404342,75.8907917 C70.6675789,57.5852083 60.9152368,28.4006042 59.0296316,23.2127292 C59.0296316,23.2127292 59.3061316,22.7217083 59.9454079,21.9918125 C59.9630789,21.9713958 59.9797105,21.9499583 59.9994605,21.9285208 C60.0160921,21.9101458 60.0337632,21.89075 60.0503947,21.872375 C60.4713816,21.3936042 61.0046316,20.8597083 61.6750921,20.3084583 C61.6969211,20.2992708 61.71875,20.2900833 61.7416184,20.2819167 C61.8621974,20.1839167 61.9869342,20.0859167 62.1189474,19.985875 L62.1085526,19.9644375 C63.5929211,18.8313125 65.6614737,17.670625 68.4742895,16.8304792 C68.6187763,16.7865833 68.7611842,16.7426875 68.9087895,16.7008333 C68.9680395,16.6845 69.3464079,16.6691875 69.4056579,16.6528542 C71.0417895,16.2026667 73.2818553,15.86375 75.3608026,15.710625 L75.3608026,15.7126667 C75.3608026,15.698375 75.3971842,15.8229167 75.5759737,15.8229167 L75.4865789,15.8229167 C75.4876184,15.8229167 82.21925,15.0144167 74.0697763,8.78120833 L74.0697763,8.78120833 Z M56.3301184,74.1717083 C52.8790658,79.7526042 48.2960263,83.7563125 42.7109342,86.0674792 L41.4271842,86.6003542 L41.6600263,87.948875 C41.7338289,88.38375 41.77125,88.8206667 41.77125,89.2494167 C41.77125,91.8402917 40.5550658,93.5603958 39.7515526,93.5603958 C39.0072895,93.5603958 37.8565921,92.0260833 37.7453684,89.6230417 L37.6559737,87.7018333 L35.7204737,87.9907292 C34.8130132,88.1265 33.891,88.2193958 32.9658684,88.2765625 C32.8515263,88.2775833 32.7049605,88.28575 32.52825,88.3010625 C32.2663026,88.3133125 32.0064342,87.9795 31.7434474,87.9846042 C29.4275,87.8804792 31.2133158,85.2375417 31.2133158,85.2375417 L31.2091579,85.2375417 C33.91075,82.1750417 36.4491447,77.8569167 37.9646974,71.9901875 C38.4480526,72.2157917 38.9075,72.4781458 39.3513553,72.4781458 C39.5322237,72.4781458 39.7110132,72.5148958 39.8856447,72.489375 C42.2805921,72.1514792 44.9052632,69.6269583 46.2201974,53.4396042 C46.7461711,46.9767083 46.8750658,40.443375 46.90625,37.6963125 C46.8573947,37.2777708 46.5850526,36.3671875 45.1297895,36.3671875 C43.6423026,36.3671875 43.4188158,37.2012083 43.3886711,37.5503333 C43.3065526,53.8540625 41.5217763,67.4872917 39.3981316,69.0695833 C38.8336974,68.7684375 36.4117237,66.7451458 32.05425,52.5239167 C32.0521711,52.5188125 32.0511316,52.3289375 32.0490526,52.3238333 C31.8588289,51.7154167 31.5199605,51.5510625 29.9534737,51.5510625 L29.9493158,51.5510625 C28.4493553,51.5510625 28.7289737,53.47125 28.756,53.5804792 C31.2663289,61.7369375 33.3036974,66.5736458 35.0365,69.2666042 C32.3775263,82.656875 24.0211974,88.4980833 20.4901053,90.3907083 C15.168,93.1010208 9.17439474,93.9768958 5.39694737,94.2300625 C22.5243553,74.865875 24.8621316,55.7752708 26.76125,40.2749375 C28.1551842,28.8865208 29.3724079,18.9650417 36.08325,11.8610625 C36.6071447,11.3526875 37.9272763,10.3665625 40.2089211,10.6850625 C42.0342368,11.0515417 44.10175,11.9345625 44.8418553,14.0109375 C46.0071053,17.2806667 48.0933289,19.6408333 50.876,20.8331667 C52.2262763,21.4119792 53.6877763,21.7018958 55.2521842,21.7018958 C55.4860658,21.7018958 55.7209868,21.6927083 55.9590263,21.6804583 C55.6648553,22.1520833 55.51725,22.4644583 55.4881447,22.5308125 L55.1970921,23.1800625 L55.4528026,23.8436042 C55.5765,24.1600625 67.6375132,55.8987917 56.3301184,74.1717083 L56.3301184,74.1717083 Z M67.7092368,13.73225 C64.6791711,14.5887292 62.3465921,15.7810625 60.5690921,17.0142292 C57.2760395,18.3862292 54.49025,18.60775 52.2865658,17.6614375 C49.9352763,16.6528542 48.8563026,14.4988958 48.2762763,12.8676042 C47.4363816,10.5135625 46.0382895,9.09460417 44.0258684,8.24016667 L44.0258684,8.23914583 C44.0258684,8.23914583 42.1714474,7.34795833 43.4832632,6.47310417 C43.7566447,6.339375 43.9770132,6.19952083 44.2524737,6.0790625 C44.2566316,6.07804167 44.2337632,6.076 44.2379211,6.07395833 C44.4582895,5.99535417 44.6256447,5.92185417 44.7763684,5.85345833 C47.2960526,4.83160417 49.9228026,4.3028125 52.6618158,4.3028125 C58.6439868,4.3028125 64.2509079,6.73647917 68.5262632,9.32327083 C68.0761711,10.3655417 67.6520658,11.8631042 67.7092368,13.73225 L67.7092368,13.73225 Z M71.2372105,12.9564167 C71.2735921,12.31125 71.3868947,11.7579583 71.5251447,11.3016458 C72.1956053,11.7793958 72.8078553,12.2408125 73.3566974,12.6716042 C72.6197105,12.7481667 71.9191053,12.8461667 71.2372105,12.9564167 L71.2372105,12.9564167 Z" id="Shape"></path>
                    </g>
                </g>
            </g>
        </g>
    </g>
</svg>