<?xml version="1.0" encoding="UTF-8"?>
<svg width="150px" height="100px" viewBox="0 0 150 100" version="1.1" xmlns="http://www.w3.org/2000/svg" xmlns:xlink="http://www.w3.org/1999/xlink">
    <!-- Generator: Sketch 40.3 (33839) - http://www.bohemiancoding.com/sketch -->
    <title>arctic</title>
    <desc>Created with Sketch.</desc>
    <defs></defs>
    <g id="Page-1" stroke="none" stroke-width="1" fill="none" fill-rule="evenodd">
        <g id="arctic" fill="#F4BB3B">
            <g id="noun_489267_cc" transform="translate(0.000000, 10.000000)">
                <g id="Group">
                    <path d="M148.20685,22.4435103 C146.27753,20.5147711 144.172817,19.2873917 142.945068,18.586032 C142.769675,18.410692 142.594283,18.2353521 142.594283,17.8846723 C142.594283,16.306613 141.717319,14.9038936 140.314177,14.2025339 C135.929359,11.9231148 131.544541,10.8710753 129.615221,10.5203955 C128.91365,9.11767606 127.335116,8.06563651 125.581189,8.06563651 C124.528832,8.06563651 123.476476,8.41631636 122.774905,9.11767606 C122.774905,9.11767606 122.774905,9.11767606 122.599512,9.11767606 L106.287989,9.11767606 C95.9398187,9.11767606 89.9764661,11.3970951 87.1701826,12.6244745 C86.8193972,12.7998145 86.6440044,12.7998145 86.293219,12.6244745 C81.2068301,9.81903576 63.1413798,0.876699621 40.6911114,0.876699621 C23.8534101,0.876699621 7.01570886,12.9751544 2.4554981,28.2297278 C0.701570886,33.8406054 -1.56541446e-14,42.6076016 5.08638892,52.7773172 C1.57853449,56.8101354 -1.56541446e-14,62.0703332 0.876963608,67.155191 L2.63089082,66.8045111 L0.876963608,67.3305309 C2.10471266,74.5194678 8.41885063,79.6043256 15.7853449,79.6043256 L20.170163,79.6043256 C22.4502684,79.6043256 24.0288028,78.552286 24.3795883,76.7988868 C24.554981,75.9221872 24.7303737,75.2208275 24.7303737,74.5194678 C26.6596937,75.9221872 28.7644063,77.5002465 31.0445117,78.9029659 C31.7460826,79.2536457 32.4476535,79.6043256 33.1492244,79.6043256 L44.1989658,79.6043256 C46.6544639,79.6043256 48.7591766,78.2016062 49.4607475,75.9221872 C50.3377111,73.6427682 49.6361402,71.1880092 47.7068203,69.7852898 C47.0052494,69.2592701 46.3036785,68.7332503 45.6021076,68.3825704 C45.6021076,68.3825704 45.6021076,68.2072305 45.4267149,68.2072305 C47.882213,68.0318906 49.8115329,67.8565507 51.2146747,67.6812107 C51.5654601,71.8893689 53.4947801,75.5715073 57.3534199,78.9029659 C58.0549908,79.4289857 58.9319544,79.7796655 59.808918,79.7796655 L74.1911212,79.7796655 C75.4188703,79.7796655 76.6466193,79.0783058 77.3481902,78.0262663 C78.0497611,76.9742267 78.0497611,75.5715073 77.5235829,74.3441279 C75.9450484,71.0126693 72.6125867,68.3825704 70.3324813,66.979851 C72.437194,64.700432 75.0680848,62.5963529 78.0497611,60.4922739 C77.1727975,65.5771317 77.6989756,73.1167484 85.9424336,79.0783058 C86.6440044,79.6043256 87.3455753,79.7796655 88.2225389,79.7796655 L100.675422,79.7796655 C103.306313,79.7796655 105.411026,78.0262663 105.937204,75.3961674 C106.463382,72.7660685 105.235633,70.4866495 102.780135,69.43461 L102.604742,69.2592701 C99.7984586,68.0318906 97.5183532,65.4017917 96.6413896,62.2456731 C95.764426,59.2648944 96.2906041,56.2841157 97.8691386,54.1800366 C101.376993,49.6211986 102.078564,45.2377004 102.253957,43.3089613 C103.657098,42.9582814 105.06024,42.6076016 106.463382,42.4322617 C111.374378,41.3802221 116.63616,40.3281826 120.319407,37.1720639 C125.931974,32.2625461 138.56025,33.3145856 142.243497,33.6652654 C143.822032,33.8406054 145.400566,33.1392457 146.27753,31.7365263 C146.628315,31.0351666 147.329886,30.3338069 148.031457,29.6324472 C150.486955,27.703708 150.486955,24.3722495 148.20685,22.4435103 L148.20685,22.4435103 Z M21.2225193,76.0975271 C21.2225193,76.0975271 21.0471266,76.272867 20.3455557,76.272867 L15.9607377,76.272867 C10.3481706,76.272867 5.43717437,72.2400488 4.56021076,66.979851 L2.80628354,67.3305309 L4.56021076,66.8045111 C4.0340326,63.1223727 4.9109962,59.4402343 7.19110158,56.2841157 C9.99738513,60.6676138 13.856025,65.4017917 19.2931994,70.3113096 C21.2225193,72.0647088 21.9240902,73.2920883 21.2225193,76.0975271 L21.2225193,76.0975271 Z M95.5890332,52.2512974 C93.3089279,55.2320761 92.607357,59.2648944 93.835106,63.2977126 C95.0628551,67.5058708 98.0445313,71.0126693 101.727778,72.5907286 L101.903171,72.5907286 C103.13092,73.1167484 102.955528,74.3441279 102.955528,74.6948077 C102.780135,75.3961674 102.253957,76.272867 101.026208,76.272867 L88.5733244,76.272867 L88.3979317,76.272867 C78.4005465,69.0839301 82.0837937,59.2648944 82.9607573,57.3361552 C86.293219,54.8813963 89.450288,52.2512974 92.2565715,49.0951788 C94.0104987,46.9910997 96.2906041,45.7637202 98.9214949,44.7116807 C98.5707095,46.4650799 97.6937459,49.2705187 95.5890332,52.2512974 L95.5890332,52.2512974 Z M145.926744,27.5283681 C145.049781,28.4050677 144.523603,29.2817673 143.997424,29.983127 C143.822032,30.3338069 143.471246,30.5091468 143.120461,30.3338069 C137.858679,29.8077871 125.05501,28.9310875 118.56548,34.5419651 C115.408411,37.1720639 111.023593,38.0487636 106.287989,39.1008031 C100.324637,40.3281826 94.0104987,41.555562 89.8010734,46.6404198 C86.293219,50.6732381 82.0837937,53.6540168 77.8743684,56.6347955 C73.4895503,59.7909142 69.4555177,62.7716929 66.8246269,66.4538313 C66.4738415,66.8045111 66.4738415,67.3305309 66.4738415,67.8565507 C66.6492342,68.3825704 66.8246269,68.7332503 67.3508051,69.0839301 C68.9293396,69.9606298 73.1387649,72.7660685 74.7172994,75.9221872 L74.7172994,76.272867 C74.7172994,76.448207 74.5419067,76.448207 74.5419067,76.448207 L60.1597035,76.448207 L59.9843108,76.448207 C56.6518491,73.4674282 54.8979218,70.1359697 55.0733146,66.4538313 C55.2487073,58.3881948 64.3691288,51.1992579 64.3691288,51.0239179 C65.0706997,50.4978982 65.2460924,49.2705187 64.7199142,48.569159 C64.1937361,47.8677993 62.965987,47.6924594 62.2644161,48.2184792 C61.9136307,48.569159 53.3193873,55.407416 51.7408529,64.1744123 C49.9869256,64.3497522 46.8298566,64.700432 42.9712168,64.875772 C42.7958241,63.6483925 42.7958241,62.2456731 42.9712168,61.3689735 C54.8979218,52.2512974 52.0916383,43.3089613 52.0916383,42.7829415 C51.7408529,41.9062419 50.8638892,41.3802221 49.9869256,41.730902 C49.109962,42.0815818 48.5837839,42.9582814 48.7591766,43.8349811 C48.9345693,44.1856609 50.8638892,51.3745978 40.5157187,58.9142145 C40.1649332,59.0895545 39.9895405,59.4402343 39.8141478,59.9662541 C39.8141478,60.141594 38.7617915,63.9990723 40.1649332,67.3305309 L40.1649332,67.5058708 C40.5157187,68.3825704 41.0418968,69.0839301 41.7434677,69.7852898 C42.4450386,70.4866495 43.3220022,71.0126693 44.1989658,71.5386891 C44.9005367,71.8893689 45.4267149,72.4153887 45.952893,72.7660685 C47.0052494,73.6427682 46.6544639,74.6948077 46.6544639,75.0454876 C46.4790712,75.7468473 45.7775003,76.448207 44.725144,76.448207 L33.3246171,76.448207 L33.1492244,76.448207 C11.0497415,61.7196533 1.40314177,45.0623605 6.13874525,29.2817673 C10.3481706,15.2545734 25.6073373,4.38349811 41.0418968,4.38349811 C62.6152016,4.38349811 79.979081,13.1504943 84.8900772,15.7805932 C86.1178263,16.4819529 87.6963608,16.4819529 88.9241098,15.9559331 C90.8534298,15.0792335 96.2906041,12.7998145 106.463382,12.7998145 L121.371763,12.7998145 C121.371763,14.7285536 122.42412,16.306613 124.178047,17.0079726 C124.35344,17.0079726 124.528832,17.1833126 124.879618,17.1833126 C125.581189,17.1833126 126.28276,16.8326327 126.458152,16.131273 C126.808938,15.2545734 126.458152,14.2025339 125.405796,13.851854 C125.05501,13.6765141 124.704225,13.3258342 124.704225,12.9751544 C124.704225,12.4491346 125.230403,11.9231148 125.756581,11.9231148 C126.28276,11.9231148 126.633545,12.2737947 126.808938,12.7998145 C126.98433,13.3258342 127.335116,13.6765141 127.685901,14.0271939 C127.861294,14.0271939 128.036687,14.2025339 128.036687,14.2025339 L128.212079,14.2025339 L128.387472,14.2025339 C128.387472,14.2025339 133.473861,14.7285536 138.735643,17.5339924 C138.911035,17.7093323 139.086428,17.8846723 139.086428,18.2353521 C139.086428,19.8134114 139.963392,21.2161308 141.191141,21.9174905 C142.41889,22.6188502 143.997424,23.6708898 145.751352,25.2489491 C146.628315,25.5996289 146.628315,26.8270084 145.926744,27.5283681 L145.926744,27.5283681 Z" id="Shape"></path>
                </g>
            </g>
        </g>
    </g>
</svg>