<?xml version="1.0" encoding="UTF-8"?>
<svg width="150px" height="100px" viewBox="0 0 150 100" version="1.1" xmlns="http://www.w3.org/2000/svg" xmlns:xlink="http://www.w3.org/1999/xlink">
    <!-- Generator: Sketch 40.3 (33839) - http://www.bohemiancoding.com/sketch -->
    <title>galapagos</title>
    <desc>Created with Sketch.</desc>
    <defs></defs>
    <g id="Page-1" stroke="none" stroke-width="1" fill="none" fill-rule="evenodd">
        <g id="galapagos" stroke="#F4BB3B" fill="#F4BB3B">
            <g id="noun_586403_cc" transform="translate(30.000000, 1.000000)">
                <g id="Group">
                    <path d="M90.461828,4.4541 C89.7944946,3.44274 88.6868387,3.2683 87.2817204,3.04682 C85.9157419,2.83318 84.2121828,2.56466 81.9958925,1.5043 C78.7649032,-0.0539 70.5905591,-2.61562 64.7235054,7.18438 C63.5502903,9.15026 62.5140645,10.8241 61.601129,12.29606 C58.7263118,16.95106 56.6479892,20.30854 53.4786452,27.44686 C52.7985914,28.98546 52.0735269,30.7279 51.3073656,32.57128 C47.498086,41.75388 42.2787957,54.32532 34.2443763,59.97404 C28.6767419,63.88522 23.756871,66.49986 19.4240968,68.79992 C16.1343978,70.54628 13.0306129,72.19268 10.1557957,74.13896 C4.18697849,78.18146 0.415860215,81.21848 0.0420752688,83.88898 C-0.0694731183,84.72786 0.0146774194,85.61868 0.703537634,86.16454 C1.58026882,86.79468 2.92667742,86.52126 4.0578172,85.87838 C3.56856989,88.45186 4.76624731,90.5177 4.96977419,90.84894 C7.84263441,96.9857 14.6920968,98.9457 16.9817742,96.88966 C17.6275806,97.1817 19.5845699,96.78872 20.0855591,95.62154 C21.932957,95.6137 23.1071505,93.6537 22.5278817,91.88186 C22.6785699,91.67802 22.8527419,91.37422 22.9779892,90.93518 C23.6551075,88.51262 21.4182688,86.47422 19.388871,85.17082 C23.3772151,84.11242 32.7433656,82.59538 37.8100108,81.82706 C37.8002258,82.1191 37.8432796,82.40134 38.0096237,82.6483 C38.5262688,83.40976 39.3893011,83.74394 40.7004839,83.74394 C42.3423978,83.74394 44.677086,83.21866 47.8836129,82.34352 C53.049086,80.9137 56.3769462,78.16872 58.5325699,75.13856 C61.1236237,74.04782 63.2401075,72.88652 65.0209677,71.64192 C65.0552151,72.84242 65.1794839,74.63778 65.5630538,75.93726 C66.2382151,78.21086 71.2500645,80.12872 75.5123871,80.15714 C77.1210323,80.1297 81.0350108,80.1297 82.2463871,78.59208 C82.4186022,78.37354 82.4890538,78.0962 82.440129,77.8169 C82.4049032,76.9937 81.4264086,76.4057 78.6866237,74.6417 C77.5124301,73.8577 76.3392151,73.0737 75.4879247,72.37594 C73.9898495,71.11468 74.3812473,68.95868 75.3597419,63.8617 L75.7501613,61.9017 C76.7286559,56.2177 76.3382366,52.6897 76.1219892,51.94686 C77.1582151,47.00962 76.9165269,42.03514 76.6738602,37.20374 C76.4556559,32.90938 76.252129,28.85022 76.8705376,24.81066 C78.3783978,14.96362 81.1573226,13.46618 84.628043,12.5391 C87.9549247,11.64534 89.911914,9.27962 90.5733763,7.51954 C91.0273978,6.33766 90.9872796,5.2479 90.461828,4.4541 L90.461828,4.4541 Z M74.5749892,57.19966 C74.5749892,59.55166 74.1835914,61.31468 73.7921935,63.47166 C72.8136989,68.95966 72.2256237,71.70268 74.3802688,73.66268 C75.3587634,74.44668 76.5319785,75.23166 77.9028495,76.0137 C78.6856452,76.60268 80.4469355,77.3857 80.4469355,77.77868 C80.4469355,78.36668 77.5114516,78.56268 75.7501613,78.56268 C70.4672688,78.36668 67.334129,76.40668 67.1394086,75.42668 C66.5523118,73.66268 66.5523118,70.52668 66.5523118,70.33166 C70.8567097,66.80366 72.8136989,62.68766 74.5749892,57.19966 L74.5749892,57.19966 Z M88.273914,8.19966 C87.4911183,8.78766 85.729828,9.76766 83.5115806,8.95426 C83.0878925,8.78962 82.6172366,9.0013 82.4587204,9.42466 C82.2923763,9.8441 82.5027527,10.31646 82.9264409,10.4811 C83.4832043,10.69866 84.0282258,10.79274 84.5566129,10.84174 C84.4352796,10.87702 84.3286237,10.92602 84.2023978,10.95934 C79.5623763,12.2059 76.7609462,14.74214 75.257,24.55978 C74.6111935,28.76986 74.8293978,33.0995 75.0397742,37.28998 C75.3166882,42.79366 75.6033871,48.48746 73.9291828,53.96566 C71.2324516,62.78762 69.154129,68.2423 60.0061828,72.67876 C60.5952366,71.48708 61.0727419,70.33264 61.2684409,69.15566 C62.8340323,64.25566 62.2469355,59.74766 62.2469355,59.55264 C62.2469355,59.16064 61.8555376,58.76766 61.2684409,58.76766 C60.877043,58.96366 60.4856452,59.35566 60.6803656,59.74766 C60.6803656,59.74766 61.0717634,64.05966 59.701871,68.76366 C57.9405806,75.03468 53.8044839,79.03504 47.4511183,80.7667 C45.319957,81.34882 40.0556559,82.86782 39.6349032,81.7859 C39.492043,81.41938 40.1358925,81.08422 41.86,80.30806 C41.8932688,80.32766 42.2846667,80.13166 42.2846667,80.13166 C43.2631613,79.73966 46.0029462,78.56268 46.1986452,78.56268 C46.7867204,78.36668 46.9814409,77.9737 46.7407312,77.5376 C46.5802581,77.11424 46.1986452,76.9937 45.687871,77.06818 C45.6115484,77.19068 42.2827097,78.47742 41.2083226,78.81062 C40.0145591,79.17714 38.2728387,79.63186 38.0986667,79.14676 C37.9929892,78.8557 38.1749892,78.3657 40.5586022,77.41902 C44.8287527,75.8177 47.494172,73.57938 47.5597312,73.53626 C47.9286237,73.27068 48.0166882,72.76206 47.7544516,72.39162 C47.4912366,72.02314 46.9863333,71.93886 46.6174409,72.2015 C44.045957,74.0537 41.5008925,75.6217 40.5223978,75.8177 C39.1525054,76.2097 40.9137957,74.6417 42.0840753,73.2648 C44.8277742,70.1337 49.7202473,65.0377 49.5245484,59.7457 C49.3288495,53.67068 49.3288495,50.9257 53.242828,44.6537 C53.4385269,44.2617 53.242828,43.6737 52.8514301,43.4777 C52.4610108,43.2817 52.0686344,43.4777 51.6782151,43.8697 C47.7642366,50.3377 47.7642366,53.47272 47.958957,59.9417 C47.958957,64.45068 43.6545591,69.35068 40.8863978,72.1525 C39.5439032,73.6617 38.8217742,74.39474 38.6241183,75.01802 C38.4127634,75.71186 38.4616882,76.18226 38.6045484,76.52722 C37.395129,77.16226 36.4166344,77.94234 36.4029355,78.96742 C36.3970645,79.5025 36.5927634,79.96408 36.9469785,80.30218 C32.117129,81.03914 20.4397742,82.90506 17.4455806,84.07518 C16.9387204,83.82822 16.5805914,83.67926 16.5199247,83.65378 C16.0600323,83.4617 16.647129,82.6777 17.5806129,81.68398 C17.9035161,81.37038 17.9133011,80.85 17.5982258,80.5266 C17.2831505,80.2032 16.7645484,80.19536 16.4436022,80.50798 C15.9856667,80.9578 14.5100968,82.516 14.7782043,83.88212 C14.8897527,84.46228 15.2909355,84.91602 15.9015161,85.16298 C16.8878387,85.57066 18.465172,86.38798 19.6745914,87.3768 C20.5239247,88.06476 21.4613226,89.05848 21.4613226,90.06788 C21.3439032,89.92872 21.3439032,89.92872 21.1482043,89.73174 C20.3654086,88.94872 18.7998172,88.16374 18.8174301,88.17354 C18.4123333,87.97264 17.921129,88.13728 17.7195591,88.53908 C17.5199462,88.94284 17.6804194,89.4348 18.0835591,89.64158 C18.4495161,89.82288 19.5102043,90.4099 20.0346774,90.9391 C21.1364624,92.06218 21.5396022,93.06374 20.3654086,94.04374 C20.5611075,91.88872 17.8213226,90.51574 16.7978172,90.16098 C16.3829355,89.99242 15.9054301,90.1943 15.7332151,90.60786 C15.562957,91.03122 15.7586559,91.50358 16.1794086,91.67802 C18.0170215,92.27974 19.9740108,94.04374 17.737172,95.20994 C18.4084194,93.65076 15.8643333,92.47574 14.2987419,92.08374 C13.9073441,91.88872 13.3202473,92.27974 13.3202473,92.67174 C13.1245484,93.06374 13.3202473,93.45672 13.9073441,93.65174 C15.6686344,94.04374 17.4299247,95.80872 14.8075591,96.02138 C13.0325699,96.16642 8.9913871,95.10998 6.35923656,89.9934 C6.30248387,89.90324 4.91497849,87.71588 5.96001075,85.19532 C6.20854839,84.58674 6.15375269,84.11438 5.79562366,83.80372 C5.21635484,83.29706 4.52358065,83.7018 3.64293548,84.22316 C2.36110753,85.02872 1.57831183,84.83174 1.6565914,84.11536 C1.96970968,81.69672 6.58429032,78.53132 11.0657957,75.49136 C13.8721183,73.598 16.9367634,71.96728 20.1853656,70.24444 C24.5670645,67.9189 29.5241183,65.28466 35.1798172,61.30978 C43.6046559,55.39156 48.9257097,42.56336 52.8142473,33.19456 C53.5745376,31.36196 54.2956882,29.62736 54.971828,28.10444 C58.0902903,21.07588 60.0384731,17.92812 62.9856989,13.15356 C63.9035269,11.67768 64.9407312,9.99992 66.1247097,8.02228 C71.1091613,-0.31164 77.7687957,1.2838 81.2894194,2.97724 C83.718043,4.13756 85.6280645,4.44136 87.0243763,4.66088 L87.2553011,4.70008 C87.4138172,5.31356 87.8521828,6.24456 88.9598387,7.12264 C88.8023011,7.5019 88.6653118,7.80766 88.273914,8.19966 L88.273914,8.19966 Z M72.618,8.59166 C72.618,8.78766 72.2266022,9.17966 71.442828,9.38938 C70.8567097,9.57166 69.9545376,9.91662 69.1707634,9.91662 C68.7363118,9.91662 68.3273011,9.82058 67.9858065,9.57362 C67.6668172,9.34038 67.2940108,8.87978 67.3145591,8.00758 C67.334129,7.47446 67.7646667,6.08286 71.4046667,4.76574 C71.8303118,4.61286 72.2990108,4.83042 72.4516559,5.2577 C72.6043011,5.68302 72.3870753,6.1495 71.9624086,6.30434 C70.5279355,6.82374 69.0601935,7.69202 68.9466882,8.08402 C68.8997204,8.39566 69.4877957,8.39566 70.8958495,7.84882 C71.4261935,7.65674 71.6943011,7.56462 71.9956774,7.62734 C72.439914,7.71946 72.8136989,8.19966 72.618,8.59166 L72.618,8.59166 Z M81.7277849,5.83394 C81.5536129,6.66302 80.7453763,7.1981 79.9185484,7.0315 C79.0907419,6.85902 78.5584409,6.0515 78.7267419,5.22046 C78.897,4.38942 79.7052366,3.8563 80.533043,4.02682 C81.3608495,4.1993 81.892172,5.00682 81.7277849,5.83394 L81.7277849,5.83394 Z" id="Shape"></path>
                </g>
            </g>
        </g>
    </g>
</svg>