<?xml version="1.0" encoding="UTF-8"?>
<svg width="150px" height="100px" viewBox="0 0 150 100" version="1.1" xmlns="http://www.w3.org/2000/svg" xmlns:xlink="http://www.w3.org/1999/xlink">
    <!-- Generator: Sketch 41 (35326) - http://www.bohemiancoding.com/sketch -->
    <title>tropics</title>
    <desc>Created with Sketch.</desc>
    <defs></defs>
    <g id="Page-1" stroke="none" stroke-width="1" fill="none" fill-rule="evenodd">
        <g id="tropics" fill="#F4BB3B">
            <g id="noun_586405_cc" transform="translate(14.000000, 1.000000)">
                <g id="Group">
                    <g id="Shape">
                        <path d="M122.964527,53.1548621 C122.964527,52.4874483 122.641892,51.8808621 120.052365,47.4978966 C118.224662,44.4092069 115.724662,40.1783103 113.344595,35.677069 C112.679054,34.4165862 112.011824,33.1003448 111.369932,31.8331034 C108.4375,26.0308276 105.398649,20.0224138 100.378378,15.7188621 C86.3496622,3.69696552 57.6706081,-1.91775862 32.1621622,2.39255172 C21.1891892,4.2477931 13.9932432,11.117931 12.4324324,21.2423448 C11.5016892,27.2946897 12.7736486,33.7001724 15.4408784,38.6964828 L15.3158784,38.6339655 C15.1976351,38.4818966 15.0456081,38.3534828 14.8631757,38.263931 C14.4070946,38.029069 13.9493243,37.871931 13.5,37.7452069 C11.0523649,36.603 8.64864865,35.7547931 6.85135135,35.7547931 C5.25844595,35.7547931 3.82601351,36.5033103 2.70777027,37.9226207 C-0.126689189,41.5165172 -0.788851351,49.4697241 1.10472973,57.2455172 C2.77027027,64.1494483 6.02027027,72.4253793 11.9847973,72.5842069 C14.9408784,72.6602414 18.1452703,71.7883793 20.6993243,70.8354138 C19.285473,73.3310345 18.0574324,76.5903793 18.6351351,79.7855172 C19.1858108,82.8454828 21.2246622,85.2701379 24.7111486,87.0155517 C30.6875,89.9994828 40.0118243,91.4644138 50.5743243,91.4644138 C51.3851351,91.4644138 52.2212838,91.434 53.0439189,91.4120345 C51.7432432,92.1875862 50.4543919,92.8904828 49.6047297,93.2132069 C48.722973,93.5393103 48.5456081,94.227 48.5118243,94.5108621 C48.4391892,95.0819655 48.6959459,95.6361724 49.2010135,95.9757931 C50.0388514,96.5536552 52.9712838,97.0521034 57.1554054,97.0487241 C64.6182432,97.0487241 76.0422297,95.4705862 86.4831081,89.9792069 C100.625,82.5413448 110.001689,72.2276897 114.011824,67.8261379 C114.709459,67.0641034 115.266892,66.4507586 115.657095,66.0638276 C116.089527,65.6278966 116.597973,65.17 117.138514,64.6715517 C119.425676,62.6017241 121.783784,60.460931 121.361486,58.0683793 C121.253378,57.4347586 120.961149,56.8670345 120.483108,56.3618276 C121.849662,55.4443448 122.964527,54.3426897 122.964527,53.1548621 Z M87.6469595,11.1584828 L87.8209459,11.3426552 L87.8327703,11.3595517 C90.7432432,15.2964483 90.7246622,17.2902414 90.6402027,26.8604483 C90.6165541,29.394931 90.5912162,32.5393793 90.6216216,36.3377241 C90.6756757,43.3244483 89.3412162,53.2038621 82.875,61.4443103 C82.0456081,60.5302069 80.8209459,58.892931 79.8310811,56.3652069 C78.2736486,52.4012759 76.9831081,45.3621724 79.6807432,34.3642069 C83.6148649,18.3513448 84.0084459,14.4279655 83.6148649,9.48065517 C85.0084459,10.0095172 86.3496622,10.5704828 87.6469595,11.1584828 Z M59.6587838,5.96617241 C61.1756757,5.80058621 62.7516892,5.71610345 64.3293919,5.71610345 C68.6706081,5.71610345 72.5168919,6.34296552 75.3293919,6.99686207 C72.0574324,8.01741379 67.5625,9.74931034 62.9628378,12.5220345 C51.25,19.5881724 44.4712838,30.0724828 43.375,42.8462759 C42.3327703,54.9374483 42.9915541,64.244069 45.3344595,70.5042414 C47.285473,75.7387931 50.0050676,77.757931 51.5506757,78.8528276 C51.3631757,78.8731034 51.1452703,78.8832414 50.8952703,78.8832414 C47.8665541,78.8832414 42.8277027,77.2831379 38.5506757,72.7683793 C31.2043919,65.0094828 30.2094595,53.0838966 30.6756757,44.4565172 C31.3209459,32.5697931 34.5945946,23.0621034 40.4172297,16.2206897 C45.4273649,10.3288621 52.0810811,6.78903448 59.6587838,5.96617241 Z M12.0709459,69.7675517 C8.84797297,69.678 5.84797297,64.8743103 3.83952703,56.5764138 C2.20439189,49.8076552 2.66722973,42.5404483 4.92905405,39.6663448 C5.50506757,38.9262759 6.13682432,38.5748276 6.85641892,38.5748276 C7.28378378,38.5748276 7.78885135,38.6677586 8.32432432,38.7927931 C6.59290541,40.2374483 5.60810811,42.6992759 5.60810811,45.9434138 C5.60810811,52.0447586 7.91385135,62.9024828 10.0118243,66.694069 C10.722973,67.968069 11.5506757,68.937931 12.4256757,69.7506552 L12.0709459,69.7675517 Z M85.1756757,87.4852759 C73.1351351,93.8113448 60.1114865,94.4753793 54.0591216,94.0985862 C56.2972973,92.7958621 58.4847973,91.3191034 58.7060811,91.1721034 C68.3530405,90.5384828 78.5,88.7998276 87.8057432,85.9882414 C86.9273649,86.4866897 86.0912162,87.0003448 85.1756757,87.4852759 Z M91.2989865,83.8727931 L91.2635135,83.5466897 L91.6469595,83.643 L91.2989865,83.8727931 Z M117.170608,55.0253103 C116.672297,55.2753793 116.368243,55.7839655 116.381757,56.3347931 C116.408784,56.8957586 116.748311,57.384069 117.261824,57.5918966 C118.179054,57.972069 118.548986,58.3505517 118.591216,58.5448621 C118.736486,59.4167241 116.469595,61.4781034 115.243243,62.5882069 C114.679054,63.1001724 114.14527,63.5851034 113.663851,64.0700345 C113.222973,64.5025862 112.652027,65.1294483 111.930743,65.9320345 C108.912162,69.242069 103.523649,75.1102414 95.7483108,80.8195862 L95.6435811,80.8364828 C93.8682432,81.5495172 91.2077703,80.9784138 88.8513514,79.3918276 C86.6013514,77.861 85.2027027,75.797931 85.2027027,74.0001379 C85.2027027,73.2144483 84.5692568,72.5875862 83.7939189,72.5875862 C83.0118243,72.5875862 82.3834459,73.2144483 82.3834459,74.0001379 C82.3834459,76.7694828 84.2060811,79.6537241 87.2719595,81.7252414 C87.8175676,82.0952759 88.3766892,82.418 88.9408784,82.6951034 C66.9577703,89.7865862 38.2550676,90.6280345 25.9831081,84.4928966 C23.2972973,83.153 21.7989865,81.4532069 21.4172297,79.2988966 C20.9915541,76.9654828 21.9256757,74.4715517 23.0523649,72.4507241 C23.5591216,76.2220345 25.9679054,81.1828621 34.1486486,84.9812069 C34.3462838,85.0775172 34.5439189,85.1096207 34.7432432,85.1096207 C35.2702703,85.1096207 35.785473,84.8122414 36.0236486,84.2918276 C36.3513514,83.5923103 36.0456081,82.7508621 35.3361486,82.4247586 C22.8141892,76.6038966 26.0304054,68.3228966 26.1790541,67.9596207 L26.2601351,67.5439655 L26.2820946,67.4510345 C26.2905405,67.1468966 26.1858108,66.8630345 26.0152027,66.6231034 L25.9949324,66.547069 L25.9577703,66.5267931 C25.8141892,66.3544483 25.6452703,66.2074483 25.4307432,66.1145172 L25.222973,66.0756552 L25.089527,66.0486207 C24.7905405,66.003 24.5067568,66.0452414 24.25,66.1702759 L24.1942568,66.1804138 C24.1554054,66.204069 21.5422297,67.6352069 18.2888514,68.6794138 C18.0945946,68.6658966 17.8969595,68.6726552 17.7010135,68.741931 C15.0945946,69.6070345 13.0540541,66.3392414 12.4814189,65.3237586 C10.7905405,62.273931 8.43074324,51.9315517 8.43074324,45.9451034 C8.43074324,43.365 9.15371622,41.4404828 10.4172297,40.664931 C11.1266892,40.229 11.875,40.2391379 12.5523649,40.4047241 C13.9070946,41.0518621 15.3040541,41.8206552 16.6469595,42.5962069 C16.0625,43.5305862 15.8699324,44.8671034 16.125,46.642931 C16.7787162,51.1931724 17.8699324,58.8405517 18.8631757,61.4865517 C19.0743243,62.0542759 19.6114865,62.4006552 20.1790541,62.4006552 C20.3445946,62.4006552 20.5152027,62.3736207 20.6739865,62.3178621 C21.4070946,62.0373793 21.7787162,61.2263448 21.4983108,60.4997931 C20.6182432,58.1376552 19.5084459,50.3956552 18.9121622,46.2171379 C18.6587838,44.4446897 19.0371622,44.0391724 19.0371622,44.0391724 L19.0574324,44.0391724 C20.4375,44.8941379 21.6368243,45.6832069 22.4290541,46.2441724 L22.4746622,46.2576897 L22.5912162,46.3404828 L22.7753378,46.3894828 L23.0405405,46.4688966 L23.3141892,46.4688966 L23.5709459,46.4384828 L23.8260135,46.3387931 L24.0456081,46.2137586 L24.2618243,46.0093103 L24.3885135,45.8910345 L24.4239865,45.8116207 L24.4915541,45.7288276 L24.5439189,45.5345172 L24.6165541,45.281069 L24.6165541,45.0107241 L24.5827703,44.7471379 L24.4898649,44.5004483 L24.3597973,44.2622069 L24.1570946,44.0577586 L24.035473,43.9259655 C23.8040541,43.7637586 23.2246622,43.3616207 22.3952703,42.8175517 C17.1993243,38.9397931 13.9662162,29.8257931 15.2179054,21.6765862 C16.0219595,16.4825862 19.3445946,7.41758621 32.6317568,5.1787931 C36.7162162,4.48265517 40.8902027,4.08389655 45.0591216,3.89465517 C33.5472973,5.98644828 25.3361486,11.2041034 21.5067568,19.1285862 C18.6418919,25.0660345 19.2280405,30.7838276 20.2972973,36.0808966 C20.4256757,36.7533793 21.0219595,37.2095862 21.6722973,37.2095862 L21.9577703,37.1926897 C22.7111486,37.0338621 23.214527,36.2887241 23.0591216,35.5266897 C22.0929054,30.7145517 21.5439189,25.5408276 24.0405405,20.3586552 C27.8006757,12.5777931 36.5016892,7.70651724 48.8006757,6.20441379 C44.8412162,8.12555172 41.2685811,10.8611034 38.2685811,14.3958621 C32.0371622,21.7222069 28.5304054,31.7773448 27.8496622,44.3078276 C27.3648649,53.4927931 28.4611486,66.2243448 36.5016892,74.7114828 C41.3851351,79.8801379 47.3040541,81.7049655 50.8918919,81.7049655 C52.875,81.7049655 54.222973,81.1777931 54.7871622,80.1741379 C55.777027,78.3847931 54.2314189,77.2966552 53.3091216,76.6528966 C50.7297297,74.8348276 43.8766892,70.0024138 46.1790541,43.0912759 C47.2094595,31.1082414 53.3141892,21.663069 64.339527,14.994 C71.9763514,10.3744828 79.4442568,8.75748276 80.6993243,8.50572414 C81.1875,13.4918966 81.2905405,15.9706207 76.9391892,33.6984828 C71.3074324,56.6406207 81.7516892,64.337 82.1959459,64.6529655 C82.4391892,64.821931 82.722973,64.9097931 83.0067568,64.9097931 C83.3986486,64.9097931 83.8023649,64.7408276 84.0827703,64.4181034 C91.9155405,55.3125517 93.4915541,44.1067586 93.4358108,36.314069 C93.4037162,32.5427586 93.4358108,29.4168966 93.4594595,26.8891724 C93.4932432,22.7765517 93.5016892,19.9328621 93.25,17.6062069 C97.6435811,25.1606552 100.067568,37.2585862 99.5439189,50.6761379 C99.3091216,56.6946897 97.6165541,68.5425517 94.0878378,74.7081034 L93.9847973,75.019 C93.4966216,75.465069 93.3530405,76.1865517 93.7077703,76.7745517 C93.9814189,77.2104828 94.4425676,77.4470345 94.9189189,77.4470345 C95.1722973,77.4470345 95.4222973,77.3878966 95.6435811,77.2425862 C99.2871622,75.0274483 111.263514,64.3032069 112.175676,57.765931 C112.287162,56.9903793 111.743243,56.2807241 110.974662,56.1658276 C110.202703,56.0627586 109.489865,56.6017586 109.378378,57.3705517 C108.878378,60.9965517 103.185811,67.2837586 98.5929054,71.3693448 C100.964527,64.6242414 102.168919,55.7788966 102.363176,50.7792069 C102.934122,36.2126897 100.217905,23.3493448 95.1942568,15.3386897 C96.3783784,16.1480345 97.5202703,16.9827241 98.5472973,17.8630345 C101.743243,20.5918276 104.092905,24.2228966 106.185811,28.0364483 L106.202703,28.1023448 C106.341216,28.3625517 109.535473,34.5973793 109.864865,45.1999655 C109.886824,45.9586207 110.515203,46.5635172 111.273649,46.5635172 L111.317568,46.5635172 C112.097973,46.5364828 112.70777,45.8876552 112.6875,45.1087241 C112.623311,43.0591724 112.425676,41.2106897 112.197635,39.4754138 C114.173986,43.0726897 116.123311,46.3928621 117.618243,48.9341034 C118.611486,50.6136207 119.630068,52.3404483 120.040541,53.1193793 C119.572635,53.6127586 118.342905,54.4356207 117.170608,55.0253103 Z"></path>
                        <path d="M79.1672297,67.8768276 C76.4560811,70.7644483 71.0945946,75.160931 68.2263514,74.7435862 C67.0219595,74.5594138 65.9560811,73.347931 65.277027,72.3611724 C63.7297297,70.1173103 62.722973,66.9982069 62.3902027,65.0077931 C66.0861486,66.1466207 73.8547297,68.1454828 78.0489865,66.3375517 C78.7668919,66.0367931 79.097973,65.2088621 78.7888514,64.489069 C78.4797297,63.7726552 77.6486486,63.4431724 76.9358108,63.7523793 C73.2972973,65.3136207 64.4881757,62.8112414 61.402027,61.7095862 C61.0202703,61.5744138 60.6030405,61.6065172 60.2449324,61.8025172 C59.8885135,62.0002069 59.6351351,62.3432069 59.5540541,62.7368966 C59.0777027,64.9013448 60.4966216,70.3961034 62.9611486,73.9578966 C64.4087838,76.0699655 66.0388514,77.2645517 67.8108108,77.5315172 C68.0641892,77.5703793 68.3226351,77.5838966 68.5861486,77.5838966 C73.75,77.5838966 80.4408784,70.6411034 81.2212838,69.8081034 C81.7550676,69.2403793 81.7314189,68.349931 81.1554054,67.8176897 C80.5929054,67.2888276 79.7010135,67.3124828 79.1672297,67.8768276 Z"></path>
                        <path d="M108.942568,48.2514828 C107.449324,48.2514828 106.241554,49.4629655 106.241554,50.9616897 C106.241554,52.4502759 107.449324,53.6617586 108.942568,53.6617586 C110.4375,53.6617586 111.650338,52.4502759 111.650338,50.9616897 C111.648649,49.4612759 110.4375,48.2514828 108.942568,48.2514828 Z"></path>
                    </g>
                </g>
            </g>
        </g>
    </g>
</svg>