<?xml version="1.0" standalone="no"?>
<!DOCTYPE svg PUBLIC "-//W3C//DTD SVG 1.1//EN" "http://www.w3.org/Graphics/SVG/1.1/DTD/svg11.dtd" >
<svg xmlns="http://www.w3.org/2000/svg" xmlns:xlink="http://www.w3.org/1999/xlink" version="1.1">
<metadata></metadata>
<defs>
<font id="futura_bqregular" horiz-adv-x="1193" >
<font-face units-per-em="2048" ascent="1638" descent="-410" />
<missing-glyph horiz-adv-x="555" />
<glyph horiz-adv-x="0" />
<glyph horiz-adv-x="682" />
<glyph unicode=" "  horiz-adv-x="555" />
<glyph unicode="&#x09;" horiz-adv-x="555" />
<glyph unicode="&#xa0;" horiz-adv-x="555" />
<glyph unicode="!" horiz-adv-x="598" d="M164 154q1 73 53.5 124.5t124.5 51.5t123 -52t51 -126q0 -72 -52 -123.5t-124 -51.5q-73 0 -125 52q-51 57 -51 125zM207 465v981h266v-981h-266z" />
<glyph unicode="&#x22;" horiz-adv-x="811" d="M49 1423q9 53 53 82t99 29q50 0 87.5 -25.5t47.5 -72.5q3 -20 0 -64l-109 -536h-65l-111 512q-7 46 -2 75zM475 1423q9 53 53 82t99 29q61 0 94 -31t41 -67q5 -23 0 -64l-109 -536h-63l-113 512q-6 54 -2 75z" />
<glyph unicode="#" horiz-adv-x="1366" d="M86 381v254h229l27 194h-205v254h240l51 363h254l-51 -363h205l49 363h256l-49 -363h186v-254h-223l-25 -194h201v-254h-238l-53 -381h-258l55 381h-202l-54 -381h-254l52 381h-193zM569 635h203l29 194h-205z" />
<glyph unicode="$" horiz-adv-x="1067" d="M41 180l162 203q93 -82 140.5 -110.5t119.5 -51.5v363q-86 36 -127 59q-254 137 -254 365q0 49 12 98q6 29 18 61.5t36 76.5t67.5 87t99.5 74q23 14 48.5 24.5t39.5 14.5t36.5 9.5t25.5 6.5v182h135v-176l41 -6q57 -7 92 -18q19 -5 37 -12t32.5 -13t30 -15t25.5 -14.5 t24 -16t20.5 -15t19 -16t15.5 -14t15 -14t13 -12.5l-166 -213q-67 62 -107.5 84.5t-91.5 30.5v-360q70 -31 104.5 -47.5t92.5 -52t92 -70.5q98 -103 98 -266q0 -158 -102 -271q-54 -62 -140 -106q-53 -27 -145 -49v-224h-137v219q-43 3 -82 9q-92 18 -167.5 62t-115.5 81 q-20 16 -57 53zM362 1042q0 -95 109 -147v295q-4 0 -21 -8.5t-28 -16.5q-63 -47 -60 -123zM594 217q28 12 41 23q22 12 47 47.5t25 83.5q-2 92 -109 161q-3 2 -4 3v-318z" />
<glyph unicode="%" horiz-adv-x="1792" d="M49 997q0 280 144 402q85 67 196 67q55 0 96 -16q92 -34 152 -123q76 -119 76 -330q0 -160 -46.5 -266t-117.5 -156q-76 -53 -174 -53q-53 0 -98.5 16t-74.5 38t-53 52.5t-35 51.5t-20 43q-25 60 -37 151q-8 108 -8 123zM250 987q0 -268 133 -268q50 0 80 43 q51 70 51 235q0 126 -32.5 200.5t-98.5 74.5q-66 -1 -99.5 -79t-33.5 -206zM436 4l742 1501l139 -69l-742 -1504zM1073 451q0 285 144 401q82 68 196 68q50 0 96 -15q93 -34 150 -123q76 -117 76 -331q0 -28 -0.5 -46t-8.5 -79t-23 -107t-49 -101t-81 -89q-76 -52 -174 -52 q-65 0 -117.5 22t-85.5 58.5t-49.5 63t-28.5 55.5q-25 58 -37 154q-8 50 -8 121zM1274 440q0 -268 131 -268q53 0 82 45q51 70 51 234q-2 128 -34 201.5t-99 72.5q-65 0 -98 -78t-33 -207z" />
<glyph unicode="&#x26;" horiz-adv-x="1323" d="M102 371q0 135 78 241q61 79 209 185q-39 58 -59.5 94t-38 90.5t-17.5 110.5q0 58 21 114q12 35 34.5 70t61.5 73.5t102.5 62.5t141.5 24q74 -2 127 -21q108 -37 171.5 -126.5t63.5 -203.5q0 -53 -10 -94q-16 -66 -60 -117.5t-112 -101.5q-40 -31 -57 -43l151 -197 l187 144l164 -215l-181 -142l238 -319h-322l-123 162q-113 -83 -205.5 -128.5t-197.5 -45.5q-78 0 -139 26q-37 15 -71.5 39t-72.5 65.5t-61 107t-23 145.5zM369 391q0 -25 8 -43q9 -29 39 -57.5t84 -28.5q46 0 88.5 25.5t120.5 91.5l-166 221q-8 -7 -44 -35t-55 -45 q-75 -65 -75 -129zM537 1096q0 -37 19 -85.5t36 -76.5t22 -33q44 48 68 76q2 2 9.5 11l10 12t8.5 11.5t8.5 12.5t7.5 11.5t6.5 13.5t4 13.5t3.5 15.5t1 16q0 32 -24.5 65t-81.5 33q-43 0 -71 -27t-27 -69z" />
<glyph unicode="'" horiz-adv-x="425" d="M70 1423q10 53 52.5 82t98.5 29q52 0 90 -26.5t47 -75.5q2 -22 -2 -60l-108 -536h-66l-110 512q-8 41 -2 75z" />
<glyph unicode="(" horiz-adv-x="512" d="M104 467q0 403 132 752q37 97 118 251l117 -77q-44 -87 -76 -160q-151 -364 -151 -756q0 -181 35 -368.5t102 -339.5q29 -67 86 -162l-119 -84q-59 105 -90 170q-154 339 -154 774z" />
<glyph unicode=")" horiz-adv-x="512" d="M43 -399q48 95 76 161q151 364 151 756q0 180 -35 367.5t-102 339.5q-29 70 -86 161l119 84q65 -115 90 -170q154 -337 154 -772q0 -429 -146 -788q-33 -79 -104 -217z" />
<glyph unicode="*" horiz-adv-x="724" d="M33 1214l88 152l72 -45q40 -26 59 -43.5t49 -56.5q-20 53 -25 74.5t-6 72.5v78h166v-78q1 -24 0.5 -42.5t-6.5 -42.5t-20 -64q35 42 55 60.5t63 47.5l64 39l90 -145l-66 -43q-3 -2 -12.5 -7.5t-12 -7t-10.5 -6t-11.5 -6.5t-11.5 -5.5t-14 -5t-15 -5t-18 -5.5t-21 -4.5 t-25 -5.5q60 -9 85 -17.5t68 -35.5l66 -41l-90 -147l-64 39q-42 26 -63 46t-61 68q1 -3 6 -15.5t6.5 -15t5.5 -13.5t4.5 -16t3.5 -15.5t3.5 -19t2 -20.5t2 -25.5t0.5 -29.5v-69h-172v69q1 35 2.5 51t10 46.5t26.5 74.5q-36 -53 -55 -72.5t-66 -48.5l-59 -36l-92 145l69 41 q4 2 13 8t12 7.5t11 6.5t11.5 6.5t11.5 5t13.5 5t14.5 4.5t18.5 5t21 4.5t25.5 4.5q-63 11 -91 21t-75 41z" />
<glyph unicode="+" horiz-adv-x="1366" d="M86 467v260h467v465h262v-465h465v-260h-465v-467h-262v467h-467z" />
<glyph unicode="," horiz-adv-x="512" d="M61 -289l123 631h303l-251 -631h-175z" />
<glyph unicode="-" horiz-adv-x="768" d="M82 391v244h604v-244h-604z" />
<glyph unicode="." horiz-adv-x="512" d="M80 137q0 73 52.5 124.5t123.5 51.5q73 0 124.5 -52t51.5 -124q0 -73 -52 -124.5t-124 -51.5q-74 0 -125 51q-51 57 -51 125z" />
<glyph unicode="/" horiz-adv-x="980" d="M0 0l821 1446h162l-825 -1446h-158z" />
<glyph unicode="0" d="M66 715q0 444 204 635q137 127 330 129q135 0 236 -60q232 -133 282 -536q10 -92 10 -170q0 -42 -4 -98.5t-25.5 -163t-58.5 -183.5q-32 -73 -90 -137q-54 -70 -135 -111q-46 -22 -106 -36q-75 -15 -123 -15q-133 0 -239 64.5t-173 183.5q-108 191 -108 498zM367 713 q0 -284 90 -391q55 -66 143 -66q101 0 158 88q73 112 73 377q0 220 -58 346t-175 125q-64 0 -109 -39q-122 -96 -122 -440z" />
<glyph unicode="1" d="M180 1165v281h582v-1446h-313v1165h-269z" />
<glyph unicode="2" d="M72 920q2 101 14 171.5t49 143.5q94 182 301 227q94 15 137 15q191 0 320 -105q166 -141 166 -350q-1 -116 -52.5 -224t-187.5 -284q-60 -76 -110 -137q-37 -44 -97 -111q99 6 199 6h266v-272h-964v80l397 493q18 25 56 73t57 73q129 183 129 301q0 83 -53.5 131.5 t-135.5 48.5q-63 0 -108 -29q-30 -20 -48.5 -49t-25.5 -68t-8.5 -64.5t-1.5 -69.5h-299z" />
<glyph unicode="3" d="M80 463h293q0 -74 6 -96q11 -58 57.5 -99t143.5 -41q48 0 85 14.5t57 35.5t32.5 49t16 49.5t3.5 42.5q0 109 -80 155q-9 5 -19.5 9.5t-19 7t-22.5 5t-22.5 3.5t-27.5 2l-28.5 1.5t-35 1.5t-38.5 1v264q117 0 164 17q40 14 72.5 52.5t32.5 106.5q0 78 -48.5 127t-126.5 48 q-36 0 -64.5 -12t-46 -31t-27 -34.5t-15.5 -31.5q-6 -17 -10.5 -38.5t-6.5 -40t-2 -19.5l-297 2q0 1 1 21t2 27t3.5 30t5 35t8 35.5t12.5 39t17.5 38.5t23 41t29 38.5t36.5 38.5q134 125 346 125q95 0 178 -31q130 -45 209.5 -152.5t79.5 -242.5q0 -157 -107 -264 q-17 -17 -69 -54q39 -18 80 -43q20 -15 40 -35.5t44 -54t38.5 -81.5t14.5 -101q0 -174 -131 -303q-150 -150 -379 -150q-78 1 -146.5 18t-117 45.5t-80.5 55.5t-56 57q-68 85 -90 168q-16 58 -18 148z" />
<glyph unicode="4" d="M68 297v276l622 873h266v-887h181v-262h-181v-297h-278v297h-610zM354 555h328q0 211 2 317q4 103 10 150q2 25 15 94q-45 -89 -80 -145q-34 -58 -90 -146z" />
<glyph unicode="5" d="M74 141l47 271l61 -43q160 -111 307 -111q52 0 97 12q77 23 124.5 76.5t47.5 130.5t-49 137q-44 56 -124.5 84.5t-160.5 26.5q-107 0 -254 -39l133 760h694v-277h-460l-35 -206q5 1 23.5 2.5t55 0t76 -7t88 -20.5t89.5 -39q106 -58 162.5 -166t56.5 -235 q0 -237 -162 -387q-65 -60 -125 -86q-50 -24 -109 -37q-82 -17 -145 -17q-76 0 -154 19q-90 21 -148.5 54.5t-135.5 96.5z" />
<glyph unicode="6" d="M100 467q0 85 27 174q11 37 26.5 75.5t38 81t39 72.5t48 79l45 70t50 75t44.5 67q31 47 95.5 142.5t96.5 142.5h379q-51 -60 -110 -131q-96 -123 -181 -238q-34 -47 -100 -132.5t-80 -104.5q51 33 90.5 47t93.5 14q83 0 159.5 -32.5t133.5 -92.5q111 -128 111 -305 q-2 -127 -51 -227q-27 -54 -74 -107q-48 -53 -106 -89.5t-113 -51.5t-92.5 -20t-73.5 -5q-180 0 -315 105q-181 147 -181 391zM383 457q7 -95 66 -154q36 -36 79 -49.5t74 -13.5q91 0 154 64t63 155q0 90 -63.5 153.5t-153.5 63.5q-91 0 -155 -64t-64 -155z" />
<glyph unicode="7" d="M80 1174v272h1024v-86l-608 -1360h-342l540 1174h-614z" />
<glyph unicode="8" d="M106 424q0 63 16 118t42.5 93.5t50 62.5t47.5 41q33 22 98 49q-38 12 -55 25q-24 14 -47 35t-48.5 55t-41.5 84.5t-16 108.5q0 176 137 288q86 67 194 86q63 15 123 15q96 0 197 -35q34 -15 67 -37q26 -18 50 -40t55 -61t50 -95.5t19 -120.5q0 -174 -122 -265 q-30 -21 -84 -45q73 -27 114 -61q67 -51 102.5 -131.5t35.5 -169.5q0 -147 -91 -262q-47 -60 -108 -101t-120.5 -57.5t-99 -22.5t-75.5 -6q-120 0 -217 41q-30 13 -59.5 30.5t-70.5 53.5t-70.5 78t-51 107t-21.5 139zM397 436q0 -81 60 -139q54 -57 139 -57q82 0 138.5 57 t56.5 139t-57.5 139.5t-139.5 57.5t-139.5 -57.5t-57.5 -139.5zM426 1063q0 -70 51 -121q49 -49 121 -49q70 0 121 50.5t51 121.5q-1 70 -52 120t-122 50q-70 0 -120 -50.5t-50 -121.5z" />
<glyph unicode="9" d="M90 967q0 96 31 182q56 153 182 243.5t287 90.5q73 0 151 -23q117 -37 204.5 -121t125.5 -198q25 -69 25 -164q0 -96 -27 -189q-26 -85 -76 -173.5t-162 -256.5l-237 -358h-381q109 131 115 139q33 40 147 193q22 29 203 274q-47 -36 -87 -50.5t-97 -14.5q-93 0 -177 41 q-28 14 -55 32.5t-59.5 52t-56 74t-40 100t-16.5 126.5zM375 983q0 -89 65 -154q63 -63 154 -63t154 64t63 155t-64 154t-155 63q-89 0 -153 -64t-64 -155z" />
<glyph unicode=":" horiz-adv-x="598" d="M172 141q0 73 51.5 123.5t124.5 50.5q74 0 125 -51.5t51 -124.5t-52.5 -124.5t-123.5 -51.5q-72 0 -125 53q-51 51 -51 125zM172 721q0 74 51.5 125t124.5 51t124.5 -52t51.5 -124q0 -73 -52.5 -124.5t-123.5 -51.5q-72 0 -125 53q-51 51 -51 123z" />
<glyph unicode=";" horiz-adv-x="598" d="M160 -283l110 627h303l-235 -627h-178zM217 721q0 74 51.5 125t124.5 51q72 0 124 -52t52 -124q-1 -73 -53.5 -124.5t-124.5 -51.5q-70 0 -123 53q-51 51 -51 123z" />
<glyph unicode="&#x3c;" horiz-adv-x="1366" d="M0 592v254l1366 606v-285l-1004 -448l1004 -443v-282z" />
<glyph unicode="=" horiz-adv-x="1366" d="M0 252v262h1366v-262h-1366zM0 682v258h1366v-258h-1366z" />
<glyph unicode="&#x3e;" horiz-adv-x="1366" d="M0 -6v282l1001 443l-1001 448v285l1366 -606v-254z" />
<glyph unicode="?" horiz-adv-x="1150" d="M154 1008q0 119 18 182q11 35 28.5 70t52 75.5t79 70.5t113 50.5t149.5 20.5q175 0 299 -91q49 -35 88 -86q90 -128 88 -288q0 -122 -49.5 -208.5t-106.5 -129.5q-18 -13 -38 -25t-36.5 -20t-34 -15t-28.5 -10.5t-21.5 -6.5t-11.5 -3v-137h-294v358q121 2 168 15 q94 24 126 102q17 40 17 90q0 28 -15 80q-43 100 -159 100q-56 0 -99 -26t-57 -65.5t-18 -102.5h-258zM426 158q0 73 51.5 123.5t124.5 50.5q72 0 123 -51.5t51 -124.5t-52 -124.5t-124 -51.5q-70 0 -123 53q-51 45 -51 125z" />
<glyph unicode="@" horiz-adv-x="1835" d="M141 487q0 195 72.5 373.5t197 310.5t301 210.5t373.5 78.5q239 0 402 -131q36 -29 68 -66t65.5 -93.5t53.5 -136.5t20 -171q0 -50 -6 -100q-16 -145 -72.5 -277.5t-151.5 -226.5q-121 -121 -258 -121q-18 0 -39.5 3t-59 20t-58.5 47q-8 10 -13.5 21.5t-8 18t-4.5 17 t-3 12.5q-2 -2 -10.5 -12t-14.5 -16.5t-16.5 -17t-22.5 -20.5t-26 -20q-76 -53 -166 -53q-62 0 -133 31q-152 87 -152 315q0 191 94 355q14 23 27 42.5t47.5 58t70.5 64.5t91.5 47t114.5 21q103 0 166 -61q31 -27 49 -62l20 82h184l-67 -325q-57 -280 -57 -332q0 -64 41 -64 q22 0 55 25q42 30 90 104q117 188 117 418q0 152 -68 256q-33 50 -80.5 86.5t-90 54.5t-92 28.5t-76 12.5t-52.5 2q-162 0 -313 -77q-202 -104 -322.5 -305t-120.5 -429q0 -261 166 -415q57 -53 128.5 -89t139.5 -50t110 -18.5t79 -4.5q290 0 545 192q65 49 122 107l95 -127 q-108 -97 -173 -143q-271 -191 -583 -191q-150 0 -298.5 47.5t-258.5 138.5q-238 199 -238 555zM690 498q0 -112 64 -158q35 -21 67 -21q45 0 89 32.5t75 76.5q38 55 63 138t23 151q0 39 -12 76q-19 54 -54.5 75t-70.5 21q-62 0 -103 -41q-66 -53 -103.5 -155t-37.5 -195z " />
<glyph unicode="A" horiz-adv-x="1492" d="M-4 0l567 1446h334l594 -1446h-340l-113 293h-600l-106 -293h-336zM537 565h397q-21 58 -61.5 168t-45.5 125q-50 141 -67 200.5t-27 133.5q-8 -61 -14 -88q-17 -73 -82 -256q-89 -253 -100 -283z" />
<glyph unicode="B" horiz-adv-x="1280" d="M125 0v1446h450q59 0 97.5 -1.5t92 -10t92.5 -23.5t79.5 -43.5t71.5 -69.5q67 -87 67 -217q0 -163 -94 -254q-10 -10 -20.5 -18t-19 -13.5t-11.5 -7.5q77 -22 112 -43q156 -92 156 -305q0 -125 -58.5 -231t-168.5 -160q-59 -27 -130.5 -37t-205.5 -12h-510zM428 254h203 q39 0 65 2t59 9.5t58.5 25t44.5 45.5q33 50 33 119q0 65 -31 106q-24 33 -62 49q-39 18 -70 20q-22 2 -53 1h-26h-221v-377zM432 885h152q61 0 99.5 13t66.5 56q28 45 28 97q0 70 -51 110q-21 15 -48.5 23t-46 9t-52.5 1h-148v-309z" />
<glyph unicode="C" horiz-adv-x="1280" d="M84 723q0 220 88 395q40 78 102 144q106 119 240 170q127 49 274 49q161 0 312 -51q18 -6 114 -48v-356q-32 28 -56.5 46.5t-77 50.5t-117.5 49.5t-136 17.5q-116 0 -204 -49q-37 -21 -72 -53.5t-70.5 -83.5t-57.5 -126t-22 -163q0 -94 29 -180q12 -34 28.5 -66.5 t50 -73.5t75 -70.5t107 -50t143.5 -20.5q57 0 108 10q109 24 201 86l36 27t35 26l-2 -337q-3 -1 -27.5 -11.5t-37 -15.5t-41.5 -15.5t-50.5 -16.5t-54.5 -14t-62.5 -12.5t-66.5 -8t-73 -3.5q-275 0 -455 154q-33 28 -63.5 61.5t-68 90t-64.5 119t-45.5 149t-18.5 180.5z" />
<glyph unicode="D" horiz-adv-x="1366" d="M123 0v1446h293q163 0 279 -14t225 -64q163 -77 258 -238q106 -176 106 -391q0 -116 -25.5 -219.5t-67.5 -177t-83 -123t-84 -82.5q-59 -47 -126.5 -76.5t-146 -41.5t-138.5 -15.5t-152 -3.5h-338zM438 254h48q45 0 77 1q48 2 115 18t115 49q34 23 64 56t58.5 81.5 t45 119t16.5 152.5q0 24 -1.5 48t-10 72t-23.5 88.5t-46.5 87.5t-74.5 81q-67 52 -157 70q-81 16 -199 16h-27v-940z" />
<glyph unicode="E" horiz-adv-x="1024" d="M119 0v1446h821v-281h-508v-286h496v-281h-496v-309h506v-289h-819z" />
<glyph unicode="F" horiz-adv-x="980" d="M121 0v1446h840v-275h-525v-282h525v-283h-525v-606h-315z" />
<glyph unicode="G" horiz-adv-x="1622" d="M80 725q0 121 20 199q8 38 23 82t53.5 116t89.5 129q65 64 107 97q186 137 450 137q251 0 437 -125q71 -46 131 -113q29 -33 67 -92l-256 -149q-29 40 -53 63q-133 127 -330 127q-158 0 -276 -98q-154 -130 -154 -365q0 -176 80 -295q20 -30 46.5 -57t69.5 -59.5t106 -52 t136 -19.5q63 0 118.5 14.5t94 38t64 45.5t43.5 45q22 28 61 109h-385v270l725 -2q0 -47 -0.5 -68t-7 -88t-20 -115.5t-42.5 -117t-71 -125.5q-55 -75 -126 -131t-134 -84.5t-133 -46t-113.5 -21.5t-85.5 -4q-75 0 -176 19q-275 57 -430 286q-129 188 -129 451z" />
<glyph unicode="H" horiz-adv-x="1409" d="M119 0v1446h315v-569h537v569h315v-1446h-315v596h-537v-596h-315z" />
<glyph unicode="I" horiz-adv-x="555" d="M117 0v1446h315v-1446h-315z" />
<glyph unicode="J" horiz-adv-x="937" d="M-2 260l246 189q15 -64 18 -72q16 -50 51 -82.5t86 -32.5q41 0 68 27q25 25 32 68.5t9 134.5v954h309v-930q0 -131 -8 -197q-23 -179 -139 -270q-101 -76 -246 -76q-30 0 -60 3t-76.5 16t-87 34t-86 62t-79.5 96q-23 38 -37 76z" />
<glyph unicode="K" horiz-adv-x="1280" d="M121 0v1446h317v-651l486 651h374l-544 -688l567 -758h-395l-488 674v-674h-317z" />
<glyph unicode="L" horiz-adv-x="980" d="M121 0v1446h315v-1161h494v-285h-809z" />
<glyph unicode="M" horiz-adv-x="1878" d="M76 0l203 1446h323l215 -617q76 -225 86 -258q19 -67 33 -122q10 35 30.5 103t30.5 103q12 37 37.5 111t38.5 111l201 569h321l205 -1446h-305l-86 696q-2 23 -6 64t-7 75t-5 64q-2 49 -2 148q-49 -172 -115 -367l-240 -680h-196l-263 725q-36 92 -59 180q-11 35 -37 131 q0 -54 -4 -164q-5 -62 -22 -208l-76 -664h-301z" />
<glyph unicode="N" horiz-adv-x="1492" d="M123 0v1446h285l485 -690q84 -121 127 -196.5t86 -164.5q-17 191 -19 264q0 1 -6 197l-6 590h295v-1446h-280l-504 719q-80 113 -131 194q-12 19 -34.5 57t-33.5 56q1 -20 4 -56t5 -65.5t3 -54.5q1 -27 3.5 -79t3.5 -79l14 -692h-297z" />
<glyph unicode="O" horiz-adv-x="1705" d="M80 702q0 175 61 326q86 214 277 334.5t426 120.5q92 0 188 -21q256 -58 414 -245q28 -34 54 -75.5t55 -105.5t47 -148t18 -175q0 -167 -61 -314q-60 -146 -169 -245t-244 -145t-294 -46q-286 0 -483 146q-36 27 -69.5 58.5t-75.5 86.5t-72 116t-51 148.5t-21 183.5z M393 719q0 -100 37 -187q54 -133 172 -203.5t266 -70.5q163 0 271 90q81 66 123.5 164.5t42.5 206.5q0 177 -109 307q-19 23 -46 46t-70 50.5t-102 43.5q-56 16 -117 16h-7q-33 0 -70.5 -5t-101 -28.5t-113.5 -63.5q-26 -21 -51.5 -48.5t-56.5 -73t-50 -109.5 q-18 -61 -18 -128v-7z" />
<glyph unicode="P" horiz-adv-x="1067" d="M123 0v1446h389q80 0 121 -2q129 -7 225 -46t162 -132q80 -109 80 -271q0 -202 -133 -331q-42 -41 -91 -66t-112 -35t-104.5 -12t-118.5 -2h-105v-549h-313zM438 815h125q70 0 105 10q40 12 67.5 34.5t38.5 50t15 47.5t4 40q0 81 -39 124t-86 55q-46 8 -99 8h-131v-369z " />
<glyph unicode="Q" horiz-adv-x="1705" d="M82 727q0 308 184 516q72 79 160 133.5t172 77.5t141 31t107 8q52 0 110.5 -6.5t158.5 -38.5t181 -86q157 -102 240.5 -266t83.5 -355q0 -289 -160 -485q-24 -30 -80 -78l215 -250l-282 -55l-127 168q-50 -20 -81.5 -31t-106 -25t-150.5 -14q-53 0 -133 11 q-204 30 -350 145q-36 28 -68.5 60t-73.5 88t-70.5 118t-50 150t-20.5 184zM393 719q0 -189 135 -320q134 -131 328 -131q56 0 135 19l-184 205l283 57l104 -137q33 38 51 65q68 109 68 246q0 86 -30 170.5t-85 148.5q-20 23 -48.5 45.5t-71.5 48t-103 41t-125 15.5 q-95 0 -182 -37q-131 -58 -203 -174.5t-72 -261.5z" />
<glyph unicode="R" horiz-adv-x="1150" d="M119 0v1446h387q76 0 115 -2q134 -5 234.5 -45t164.5 -139q67 -102 67 -242q0 -105 -41.5 -199t-123.5 -147q-31 -20 -62 -31.5t-98 -26.5l418 -614h-373l-383 610v-610h-305zM426 813h113q39 1 64 3.5t56 11t54.5 27.5t40.5 48q26 47 26 103q0 71 -41 118 q-36 41 -86 54.5t-121 15.5h-106v-381z" />
<glyph unicode="S" horiz-adv-x="1067" d="M12 172l209 229l43.5 -48t45 -43t54 -40.5t57.5 -25t68 -11.5q72 0 124.5 48t52.5 120q0 43 -25 82q-6 10 -14 19t-19.5 18t-19.5 15.5t-23.5 15t-22.5 13t-25 13t-22 10.5t-23 11l-19 8q-135 68 -209 125q-160 129 -160 324q0 127 74 237q36 52 84 90t90 57t90.5 30 t77 13.5t57.5 2.5q127 0 238 -51q42 -20 86 -55t55.5 -47t38.5 -42l-201 -225q-95 137 -213 137q-61 0 -105 -37t-44 -96q0 -21 7 -40t15 -33.5t26.5 -30.5t28.5 -24.5t34.5 -22t32 -17.5t34.5 -16t28 -13q100 -43 146 -69t90 -62q139 -119 139 -307q0 -202 -139 -330 q-45 -45 -102 -75q-115 -62 -265 -62q-134 0 -243 41t-232 164z" />
<glyph unicode="T" horiz-adv-x="980" d="M23 1163v283h931v-279h-309v-1167h-313v1163h-309z" />
<glyph unicode="U" horiz-adv-x="1409" d="M121 543v903h307v-893q0 -47 2 -75.5t14 -66t35 -67.5q80 -100 234 -100q63 0 112 17.5t77 47t43 57.5t22 58q9 33 12 119v903h307v-805q-1 -77 -3.5 -122.5t-12 -110.5t-31 -119.5t-55.5 -104.5q-42 -61 -100.5 -105.5t-110.5 -66.5t-113 -34.5t-93.5 -14.5t-66.5 -2 q-115 0 -219.5 32.5t-192.5 106t-128 179.5q-16 41 -25 90.5t-11 82t-3 91.5z" />
<glyph unicode="V" horiz-adv-x="1409" d="M2 1446h344l281 -832q34 -106 55 -190q12 -46 23 -111q58 213 69 248q10 33 29.5 90.5t25.5 75.5l242 719h340l-565 -1446h-303z" />
<glyph unicode="W" horiz-adv-x="1961" d="M-6 1446h323l197 -766q5 -21 14 -60l16.5 -71.5t12.5 -61.5q3 -19 25 -161q15 101 26 161q8 48 47 242l156 717h334l186 -830q5 -23 15.5 -71.5t15.5 -71.5q15 -93 22 -151q29 173 37 215q21 99 45 198l176 711h318l-422 -1446h-326l-159 705q-22 101 -45 217 q-17 90 -33 190q-20 -143 -25 -170q-16 -91 -39 -192l-163 -750h-334z" />
<glyph unicode="X" horiz-adv-x="1366" d="M-12 0l538 758l-485 688h385l272 -434l283 434h373l-494 -682l514 -764h-368l-324 510l-326 -510h-368z" />
<glyph unicode="Y" horiz-adv-x="1280" d="M6 1446h365l272 -553l287 553h352l-481 -787v-659h-316v647z" />
<glyph unicode="Z" horiz-adv-x="1236" d="M-2 0l680 1165h-606v279h1118l-682 -1163h672v-281h-1182z" />
<glyph unicode="[" horiz-adv-x="768" d="M174 -449v1895h526v-219h-260v-1450h262v-226h-528z" />
<glyph unicode="\" horiz-adv-x="724" d="M4 1446h262l467 -1483h-262z" />
<glyph unicode="]" horiz-adv-x="768" d="M63 -223h265v1452h-262v217h526v-1892h-529v223z" />
<glyph unicode="^" horiz-adv-x="1492" d="M233 637l416 809h213l398 -809h-283l-225 473l-238 -473h-281z" />
<glyph unicode="_" horiz-adv-x="1024" d="M-20 -231h1064v-261h-1064v261z" />
<glyph unicode="`" horiz-adv-x="555" d="M-162 1276l230 170l288 -334l-166 -113z" />
<glyph unicode="a" d="M70 442q0 228 139 365q111 108 283 108q140 0 231 -73q27 -21 70 -72v123h288v-893h-286v88q-6 -5 -18.5 -15.5t-23 -19t-20.5 -14.5q-107 -72 -246 -72q-96 0 -172 37q-121 56 -183 176t-62 262zM375 442q0 -145 102 -209q45 -34 121 -34q96 0 154.5 68.5t58.5 164.5 q0 100 -62 170t-161 70q-98 0 -160 -72q-53 -61 -53 -158z" />
<glyph unicode="b" d="M106 0v1528h289v-752l56 55q103 87 249 87q165 0 281 -107q56 -50 100.5 -139t44.5 -215q0 -196 -110 -328q-128 -154 -340 -154q-130 0 -219 68q-27 19 -56 53v-96h-295zM383 440q0 -51 16 -92q25 -66 78.5 -102.5t124.5 -36.5q95 0 152 67.5t57 165.5q0 112 -61 168 q-58 62 -150 62q-60 0 -100 -23q-117 -59 -117 -209z" />
<glyph unicode="c" horiz-adv-x="894" d="M66 440q0 166 96 295q135 187 397 187q51 0 100.5 -8.5t76 -16.5t75.5 -25v-262q-2 1 -15.5 7.5t-22 10t-25.5 10t-31.5 11t-33.5 9t-39 6.5t-40 2q-101 0 -168 -59.5t-67 -160.5q0 -44 16 -86q7 -21 21.5 -43.5t39.5 -47t65.5 -40.5t90.5 -16q22 0 43 3t40 9.5t34 12 t31.5 15t25 14t22 14t15.5 10.5l-2 -262l-22 -9q-22 -8 -43 -15t-54 -15.5t-72.5 -13.5t-80.5 -5q-191 0 -316 107q-26 22 -49.5 50.5t-49.5 73t-42 106.5t-16 132z" />
<glyph unicode="d" d="M70 444q0 200 110 328q40 45 88.5 76t95 43.5t78 17t60.5 4.5q55 0 103 -11.5t86.5 -34t57 -36.5t44.5 -36v731h290v-1526h-288v115q-53 -53 -82 -72q-100 -66 -234 -66q-64 0 -119.5 16.5t-92.5 40t-68.5 56t-47.5 57.5t-30 52q-51 105 -51 245zM375 442q0 -128 94 -192 q55 -33 113 -33q55 0 100 25q58 30 88.5 87.5t30.5 125.5q0 85 -47 143q-21 29 -63 53.5t-101 24.5q-95 0 -155 -68.5t-60 -165.5z" />
<glyph unicode="e" horiz-adv-x="1067" d="M78 446q0 126 51 230q54 121 176 190q115 62 240 62q60 0 139 -19q61 -17 111 -47t81 -61t55.5 -69.5t35.5 -65t20 -54.5q17 -72 17 -190v-37h-648q11 -58 29 -90q26 -49 73 -75.5t103 -26.5q114 0 182 114l236 -112q-3 -3 -12.5 -17.5t-20.5 -29t-26 -29.5 q-142 -148 -365 -148q-81 0 -151.5 20t-119 53.5t-79.5 64t-53 63.5q-74 110 -74 274zM356 555h367q-2 14 -7 30t-15.5 40t-31 46t-46.5 36q-35 20 -86 20q-107 0 -158 -100q-13 -34 -23 -72z" />
<glyph unicode="f" horiz-adv-x="598" d="M-4 676v215h121v121q0 160 2 190q9 125 38 189q73 157 297 157h3q80 0 164 -14v-242q-44 6 -84 6q-61 0 -88 -20q-20 -17 -30 -49t-11.5 -61t-1.5 -93v-184h202v-215h-205v-676h-286v676h-121z" />
<glyph unicode="g" d="M68 449q0 197 112 325q124 141 320 141q62 0 112 -14t85 -40.5t53.5 -45.5t40.5 -49v123h290v-805q0 -1 0.5 -20.5t0.5 -36t-1.5 -45t-5 -53t-10 -54t-16.5 -53.5q-27 -72 -78.5 -124.5t-118 -81t-135.5 -41.5t-144 -13q-198 0 -315 82q-41 23 -74 73q-29 43 -40.5 82 t-18.5 99h295q0 -1 3.5 -9t8 -17.5t8.5 -16.5q47 -74 160 -74q112 0 158 69q20 28 25.5 65.5t7.5 121.5v88q-25 -25 -52 -49q-107 -88 -262 -88q-124 0 -217 61q-29 17 -78 66q-44 50 -79 135t-35 199zM369 442q0 -47 12 -84q23 -63 77.5 -99t123.5 -36q93 0 145.5 63 t52.5 158q0 56 -18 95q-18 41 -66.5 79.5t-126.5 38.5q-90 0 -145 -61.5t-55 -153.5z" />
<glyph unicode="h" horiz-adv-x="1110" d="M109 0v1528h290v-756q3 3 21 27q106 123 272 123q62 0 118 -17.5t103 -58t68 -98.5q23 -63 23 -162v-586h-295v471v10q0 35 -1.5 53.5t-7.5 46t-22 46t-43 30.5q-35 15 -68 15q-54 0 -98 -33q-32 -23 -48.5 -58t-19.5 -60.5t-4 -74.5v-446h-288z" />
<glyph unicode="i" horiz-adv-x="512" d="M84 1231q0 72 51.5 123t122.5 51q72 -1 123 -53t51 -123t-51.5 -121.5t-122.5 -50.5q-72 0 -123 51q-51 48 -51 123zM111 0v891h292v-891h-292z" />
<glyph unicode="j" horiz-adv-x="512" d="M82 1231q0 72 51 123t123 51q70 -1 121 -53t51 -123t-51.5 -121.5t-122.5 -50.5q-70 0 -123 51q-49 49 -49 123zM106 -406v1297h293v-1297h-293z" />
<glyph unicode="k" horiz-adv-x="1024" d="M109 0v1528h290v-1002l283 369h354l-346 -414l373 -481h-379l-285 418v-418h-290z" />
<glyph unicode="l" horiz-adv-x="512" d="M111 0v1528h292v-1528h-292z" />
<glyph unicode="m" horiz-adv-x="1705" d="M111 0v895h295v-133q16 23 28 39t37 39.5t52.5 38t70 25.5t92.5 11q151 0 236 -98q23 -27 47 -69q42 48 43 49q106 116 266 116q69 0 125 -18t91 -47t56 -59t31 -62q18 -54 21 -162v-565h-291v496v5q0 17 -0.5 28.5t-4 33.5t-12.5 37.5t-23.5 32t-40 25t-59.5 8.5 q-92 0 -139 -66q-31 -44 -31 -135v-465h-292v483q0 40 -2 63.5t-16.5 54t-41.5 48.5q-42 21 -78 21q-50 0 -92 -27q-13 -8 -23.5 -17.5t-18 -19t-13.5 -21t-9.5 -21t-6.5 -22t-4.5 -20t-2 -19.5t-0.5 -17v-14.5v-10.5v-461h-290z" />
<glyph unicode="n" horiz-adv-x="1110" d="M111 0v891h290v-117l32.5 32.5t42.5 35t62 40t72 24.5q42 12 85 12h7q93 0 156.5 -35.5t93.5 -79.5q32 -49 42 -103.5t10 -128.5v-571h-291v489q0 34 -2 55.5t-13 49.5t-32 47q-37 31 -93 31q-61 0 -104 -35q-45 -33 -58.5 -79.5t-13.5 -113.5v-444h-286z" />
<glyph unicode="o" horiz-adv-x="1150" d="M72 449q0 65 14 123t34.5 98t49.5 75t52.5 55.5t49.5 37.5q125 86 291 88h8q79 0 149 -18q74 -19 125 -51.5t84.5 -62.5t57.5 -63q92 -122 92 -285q0 -103 -43 -198q-60 -134 -182.5 -207.5t-273.5 -73.5q-146 0 -269 66q-63 39 -90 65q-149 132 -149 351zM365 442 q0 -51 18 -94q25 -58 77 -92.5t115 -34.5q91 0 149 66.5t58 158.5q0 93 -58 160q-58 66 -148 66h-3q-56 -6 -96 -27q-55 -30 -83.5 -84t-28.5 -119z" />
<glyph unicode="p" d="M106 -410v1305h287l2 -119q25 24 35 33t44 34t62.5 37t75 23.5t95.5 11.5q94 0 165 -36q66 -30 115 -79.5t73.5 -97.5t39 -104.5t17.5 -89t3 -62.5q0 -196 -114 -329q-121 -142 -316 -142q-60 0 -109 12t-87 36t-56 39t-45 42v-514h-287zM381 440q0 -52 18 -100 q26 -62 79 -96.5t120 -34.5q59 0 98 22q45 27 79 80t34 138q0 39 -12 83q-7 21 -19.5 42.5t-35.5 46.5t-61.5 41t-86.5 16q-51 -2 -84 -19q-22 -10 -41.5 -25.5t-41 -40.5t-34 -65t-12.5 -88z" />
<glyph unicode="q" d="M74 446q0 29 2.5 58.5t15 81.5t33 96.5t62.5 93.5t98 82q89 55 202 55q124 0 220 -61q40 -24 94 -78v121h286v-1305h-286v512q-24 -23 -34.5 -32.5t-42 -32t-58.5 -33.5t-70.5 -21t-91.5 -10q-116 0 -207 52q-35 19 -70 51.5t-71.5 82.5t-59 125t-22.5 162zM385 444 q0 -40 14 -88q6 -20 18 -41.5t34.5 -47.5t60 -43t84.5 -17q43 0 74 12q54 18 98.5 72t44.5 149q0 125 -84 191q-62 43 -129 45q-52 0 -98 -21q-45 -23 -81 -74.5t-36 -136.5z" />
<glyph unicode="r" horiz-adv-x="681" d="M104 0v891h287v-146q1 0 9.5 12.5t22 31t21.5 28.5q29 34 61 54.5t67.5 27.5t51.5 8.5t46 1.5l-2 -295q-59 39 -117 39q-51 0 -88 -35q-43 -39 -55.5 -104.5t-12.5 -196.5v-317h-291z" />
<glyph unicode="s" horiz-adv-x="854" d="M47 193l252 88q33 -74 81 -95q22 -10 48 -10q45 0 69.5 23t22.5 47q0 11 -4 21t-13 18.5t-16 14t-23 12t-23 9.5t-25.5 9.5t-22.5 7.5l-117 43q-81 36 -120 74q-70 69 -70 172q0 69 35 133q48 82 139.5 123t192.5 41q186 0 276 -109q27 -34 55 -104l-229 -88q-3 5 -8 14 t-8 14q-50 68 -107 68q-30 -2 -52 -20.5t-22 -47.5q0 -32 29 -55q15 -11 42.5 -22t75 -28t81.5 -30q77 -31 123 -67t67 -99q15 -46 15 -88q0 -76 -41 -141q-26 -41 -67 -71.5t-77.5 -44.5t-81 -22t-64 -9t-40.5 -1q-150 0 -248 60q-45 30 -72 63q-11 14 -21 30.5t-14.5 26 t-10.5 24.5t-7 16z" />
<glyph unicode="t" horiz-adv-x="598" d="M41 676v215h123v321h293v-321h161v-215h-163v-676h-291v676h-123z" />
<glyph unicode="u" horiz-adv-x="1110" d="M102 455v440h291v-461q0 -69 13 -114.5t57 -77.5q42 -29 98 -29q52 3 90 27q42 30 55 75t13 111v469h289v-469q0 -69 -3 -110t-19.5 -96.5t-49.5 -98.5q-34 -43 -80.5 -74.5t-87 -46.5t-87.5 -23.5t-70.5 -10t-47.5 -1.5q-67 0 -131.5 13.5t-125 41.5t-107.5 76.5 t-70 112.5q-17 44 -22 95t-5 151z" />
<glyph unicode="v" horiz-adv-x="1110" d="M0 893h326l139 -354q43 -108 60 -162t34 -148q22 92 55 195q17 53 66 182l106 287h320l-395 -893l-318 2z" />
<glyph unicode="w" horiz-adv-x="1748" d="M6 889h301l148 -357q28 -71 39 -102q31 -90 41 -125q18 73 63 213l129 371h299l131 -402q26 -77 29 -86q17 -65 22 -92q67 184 76 205l160 375h295l-404 -889h-272l-131 365q-32 97 -35 110q-18 61 -25 105q-12 -60 -23.5 -99t-47.5 -141l-117 -340h-287z" />
<glyph unicode="x" horiz-adv-x="1110" d="M0 0l373 457l-342 436h346q19 -27 52.5 -76t41.5 -61q17 -25 46 -73t40 -65q10 17 29.5 49t35.5 58.5t31 50.5q14 19 39 58t39 59h350l-342 -428l367 -465h-346q-123 183 -201 309q-7 -11 -37.5 -60t-48.5 -75q-42 -61 -127 -174h-346z" />
<glyph unicode="y" horiz-adv-x="1110" d="M-6 891h325l160 -399q19 -45 39 -103q30 -102 35 -123q53 141 111 279l143 348h303l-569 -1309h-310l177 398z" />
<glyph unicode="z" horiz-adv-x="980" d="M33 0l438 670h-387v219h856l-432 -653l-12 -17h417v-219h-880z" />
<glyph unicode="{" horiz-adv-x="724" d="M70 504v14q37 9 65 27q34 22 54.5 55t28.5 78.5t9.5 74t1.5 79.5v4.5v3.5v4v4v362q2 68 15 118t48.5 95.5t94.5 71.5q16 7 33 12.5t30 9.5t36 6.5t35 4t43.5 2.5t44.5 1t55.5 0.5t60.5 0.5v-16q-25 -4 -72 -19q-23 -7 -45.5 -19t-51 -44.5t-40.5 -77.5q-4 -14 -6.5 -26.5 t-4 -33.5t-2 -31t-1 -45t-0.5 -49v-194q0 -19 -0.5 -65.5t-0.5 -61t-1.5 -49.5t-3.5 -48.5t-5.5 -38.5t-8.5 -39t-13 -31.5t-18 -33.5q-29 -41 -67.5 -63t-96.5 -37q99 -27 149 -84q21 -23 34 -51t20 -50.5t10 -73t3.5 -78.5t0.5 -107v-220v-34v-37.5t1 -32.5t4 -37 t7.5 -31.5t11.5 -35.5t17 -31q9 -15 19 -27t24 -21.5t22 -15.5t27.5 -13t25.5 -9.5t31 -9.5t31 -9v-14h-94q-69 1 -107.5 4t-95.5 19.5t-98 48.5q-35 27 -56.5 63t-30 81t-11 81t-3.5 87v22v258q0 9 0.5 46.5t0 50.5t-3 44t-7.5 48.5t-15 41t-24 43.5q-24 36 -59 55 q-29 17 -51 23z" />
<glyph unicode="|" horiz-adv-x="468" d="M104 -512v2044h261v-2044h-261z" />
<glyph unicode="}" horiz-adv-x="724" d="M0 -498q68 15 108 33.5t72 63.5q7 9 12 19t9.5 17.5t7.5 19.5t5 19t3.5 22t2.5 22.5t1.5 27.5t0.5 29t0.5 34.5t0.5 38.5v195v26q0 151 8.5 219t47.5 122q29 41 66.5 63t92.5 35q-97 26 -147 84q-21 24 -35 52.5t-21 51t-10 72.5t-3.5 78t-0.5 106v222v31v33.5t-1 31 t-2.5 33.5t-5 30t-8.5 32.5t-12.5 28t-17.5 29.5q-21 29 -52 48t-53 26t-69 19v16q15 0 46 -1t48 -1q64 0 106 -3t98 -19.5t97 -47.5q35 -27 56.5 -64t30 -81.5t11 -80.5t3.5 -86v-22v-260q0 -8 -0.5 -45.5t0 -50.5t3 -44t7.5 -48.5t15 -41.5t24 -44q22 -32 59 -55 q23 -14 51 -21v-16q-35 -6 -65 -27q-33 -21 -54 -54.5t-29 -80t-9.5 -76.5t-1.5 -81v-11v-358q-2 -69 -15.5 -120.5t-50.5 -98t-98 -72.5q-39 -17 -90.5 -24t-89.5 -8t-152 -1v14z" />
<glyph unicode="~" horiz-adv-x="1492" d="M211 616q51 70 89 103q102 90 230 90q54 0 100 -15.5t111 -48.5l74 -32q90 -45 156 -45q96 0 205 125l106 -215q-41 -45 -92 -84q-119 -86 -227 -86q-83 0 -213 63l-64 31q-3 1 -18 8.5t-18.5 9t-17 7.5t-19 7.5t-17.5 5.5t-20 5t-18.5 2.5t-20.5 1.5q-41 -3 -76 -17 q-21 -10 -43.5 -29.5t-37 -35.5t-56.5 -64z" />
<glyph unicode="&#xa1;" horiz-adv-x="598" d="M82 1296q1 73 53.5 125t124.5 52q69 0 123 -54q51 -51 51 -123q0 -74 -51.5 -125t-124.5 -51t-124.5 52t-51.5 124zM121 0v985h268v-985h-268z" />
<glyph unicode="&#xa3;" d="M76 236q82 49 112 71q119 95 119 219q0 45 -31 138h-176v157h117q-3 6 -18.5 29.5t-22.5 36.5q-65 112 -65 215q3 124 71 213q20 26 78 74q134 102 346 102q143 0 254 -51q54 -23 107 -66q43 -36 75 -74q30 -35 70 -106l-285 -127q-24 67 -54 107.5t-85 60.5 q-42 12 -82 12q-96 0 -145 -57q-29 -36 -29 -80q0 -30 14 -61q8 -23 22.5 -49.5t37.5 -61.5t29 -45q15 -28 34 -74h240v-155h-201q8 -78 -10 -136q-6 -22 -16 -42.5t-20 -36t-24.5 -31.5t-24.5 -26t-25.5 -22t-22 -17t-19.5 -14l-14 -9q118 -9 184 -31q20 -6 56.5 -20 t57 -20.5t52.5 -12.5t64 -6q58 0 102.5 20t100.5 59l141 -237q-96 -58 -158 -80q-96 -35 -196 -35q-115 0 -250 45q-9 3 -38 14t-43 16t-41.5 13.5t-46 13t-42 8t-43.5 3.5q-42 0 -90 -14.5t-79.5 -30t-82.5 -43.5z" />
<glyph unicode="&#xa4;" horiz-adv-x="1366" d="M12 219l168 168q-30 45 -37 59q-51 104 -51 246q0 174 86 312l-164 163l195 195l164 -164q22 15 55 33q118 55 256 55q166 0 307 -88l166 166l197 -197l-166 -163q30 -54 31 -56q55 -114 55 -256q0 -73 -17 -140.5t-32 -98t-39 -70.5l166 -168l-197 -195l-166 168 q-40 -23 -69.5 -37.5t-97 -31.5t-140.5 -17q-168 0 -309 91l-166 -168zM348 694q0 -76 25 -133q39 -94 125.5 -149.5t187.5 -55.5q69 0 143 33q89 43 139 125t50 182q0 79 -31 144q-40 89 -123 141.5t-182 52.5q-54 0 -111 -20q-105 -36 -164 -122.5t-59 -197.5z" />
<glyph unicode="&#xa6;" horiz-adv-x="468" d="M104 389h261v-780h-261v780zM104 631v780h261v-780h-261z" />
<glyph unicode="&#xa7;" horiz-adv-x="1110" d="M74 90h295q5 -65 16 -94q14 -42 54 -76.5t114 -34.5q33 0 68 13q41 18 65.5 51.5t24.5 75.5q0 86 -84 127q-19 10 -42.5 17t-67.5 17t-75 19q-3 1 -8 2q-177 44 -258 162q-76 107 -76 247q0 183 115 293q16 15 57 43q-8 8 -25.5 23.5t-25.5 23.5q-86 95 -86 224 q0 84 45 166q46 73 141 126.5t244 53.5q133 0 236 -47q19 -8 40.5 -20.5t50.5 -34.5t56 -57t43 -77q31 -77 29 -211l-285 2q0 46 -2.5 71.5t-17.5 57t-45 54.5q-44 34 -103 34q-23 0 -53 -10q-43 -14 -70.5 -51.5t-27.5 -83.5q0 -41 20 -74q12 -17 27.5 -30t42 -24t38 -15.5 t46.5 -14t37 -10.5q17 -3 68 -18.5t89 -34.5q35 -17 66.5 -41t68.5 -65.5t59.5 -105.5t22.5 -142q0 -140 -71 -240q-19 -32 -60 -70q-15 -15 -39 -35q21 -16 26.5 -20.5t32 -27t39.5 -41.5t31 -48.5t26.5 -64.5t8.5 -74q0 -151 -116 -248q-125 -104 -324 -104q-82 0 -154 16 q-28 7 -60.5 21t-78.5 41t-87.5 74.5t-65.5 107.5q-28 65 -35 182zM381 612q0 -71 51 -120q16 -18 48 -35t73 -17q70 0 121 51.5t51 122.5q0 70 -50.5 121t-121.5 51t-121.5 -51.5t-50.5 -122.5z" />
<glyph unicode="&#xa8;" horiz-adv-x="555" d="M-270 1233q0 68 47 115t114 47t114.5 -48t47.5 -114q0 -68 -48 -115t-116 -47q-65 0 -112 47t-47 115zM166 1233q0 67 47 114.5t115 47.5q67 0 114 -48t47 -114q0 -68 -47 -115t-114 -47q-68 0 -115 47t-47 115z" />
<glyph unicode="&#xa9;" horiz-adv-x="1705" d="M125 725q0 264 166 467q28 32 58.5 61.5t84 67.5t112 65.5t140.5 46.5t170 19q175 0 328 -76t258 -217q144 -194 141 -440q0 -42 -6 -87t-22 -110t-53.5 -136.5t-92.5 -135.5q-68 -80 -151.5 -135.5t-163 -79.5t-135.5 -32.5t-105 -8.5q-249 0 -446 149q-34 27 -66 58 t-73.5 85.5t-71.5 115t-51 146t-21 177.5zM190 723q0 -131 50 -252q75 -187 244 -299.5t372 -112.5q112 0 223 39q198 70 317.5 241t121.5 382q0 223 -129 399q-24 32 -52 62t-78 69t-105 67t-134 48t-164 20q-223 0 -393 -126q-32 -23 -63 -51t-70.5 -78.5t-69 -106.5 t-50 -135.5t-20.5 -165.5zM358 725q0 122 43 221q16 36 37.5 70t62 76t89.5 72.5t122.5 51.5t157.5 21q79 0 147 -17t117.5 -47.5t78 -54.5t57.5 -55l-178 -172q-102 102 -226 100q-72 0 -123 -24q-65 -32 -99 -98.5t-34 -143.5q2 -121 72.5 -192.5t189.5 -71.5 q128 2 220 94l178 -166q-83 -89 -180 -130.5t-220 -41.5q-124 0 -223 41q-140 58 -214.5 184t-74.5 283z" />
<glyph unicode="&#xab;" horiz-adv-x="937" d="M53 455l324 471l141 -115l-237 -346l241 -318l-160 -112zM428 465l313 459l152 -111l-236 -342l238 -319l-156 -109z" />
<glyph unicode="&#xac;" horiz-adv-x="1366" d="M0 465v260h1366v-725h-262v465h-1104z" />
<glyph unicode="&#xad;" horiz-adv-x="768" d="M82 391v244h604v-244h-604z" />
<glyph unicode="&#xae;" horiz-adv-x="1705" d="M125 725q0 264 166 467q28 32 58.5 61.5t84 67.5t112 65.5t140.5 46.5t170 19q175 0 328 -76t258 -217q144 -194 141 -440q0 -42 -6 -87t-22 -110t-53.5 -136.5t-92.5 -135.5q-68 -80 -151.5 -135.5t-163 -79.5t-135.5 -32.5t-105 -8.5q-249 0 -446 149q-34 27 -66 58 t-73.5 85.5t-71.5 115t-51 146t-21 177.5zM190 723q0 -131 50 -252q75 -187 244 -299.5t372 -112.5q112 0 223 39q198 70 317.5 241t121.5 382q0 223 -129 399q-24 32 -52 62t-78 69t-105 67t-134 48t-164 20q-223 0 -393 -126q-32 -23 -63 -51t-70.5 -78.5t-69 -106.5 t-50 -135.5t-20.5 -165.5zM512 262v938h336q55 0 82 -2q105 -4 160.5 -27.5t91.5 -70.5q51 -66 51 -152q0 -28 -5.5 -52.5t-13.5 -42.5t-21.5 -35t-24 -27.5t-28 -22.5t-26 -16.5t-24.5 -13t-19 -9.5q24 -14 31 -20q56 -43 69 -146q0 -2 7 -41.5t14.5 -77.5t24 -90.5 t36.5 -91.5l-258 2q-13 28 -22.5 62t-13.5 55.5t-10 65.5t-9 61q-15 81 -25 100q-7 12 -18 21q-10 8 -21.5 13.5t-25.5 7.5t-23 3t-26.5 1.5t-24.5 0.5h-39v-393h-225zM737 834h101q78 0 108 7.5t49 41.5q15 23 15 53q0 24 -13 47q-26 45 -118 45h-142v-194z" />
<glyph unicode="&#xb0;" horiz-adv-x="724" d="M10 1174q0 149 102.5 250.5t249.5 101.5q81 0 146 -31q95 -41 151 -129t56 -192q0 -81 -31 -146q-41 -95 -130 -152t-192 -57q-129 0 -229 86q-123 105 -123 269zM250 1178q0 -47 34 -81t81 -34q46 0 79 34t33 81t-33.5 79.5t-81.5 32.5q-46 0 -79 -32.5t-33 -79.5z" />
<glyph unicode="&#xb1;" horiz-adv-x="1366" d="M86 0v260h1194v-260h-1194zM86 760v260h467v426h262v-426h465v-260h-465v-428h-262v428h-467z" />
<glyph unicode="&#xb4;" horiz-adv-x="555" d="M-150 1112l289 334l228 -170l-349 -277z" />
<glyph unicode="&#xb5;" horiz-adv-x="1150" d="M121 768q0 56 9.5 95t41.5 69q31 31 72 31q70 0 103 -92q0 -1 0.5 -1.5t0.5 -1.5q6 -42 6 -65q0 -89 -63 -555q65 -154 184 -154q59 0 113 47q71 60 99 169t28 302q0 6 -1 64.5t-0.5 91.5t7 78.5t20.5 68.5q30 48 88 48q40 0 74 -27q29 -23 41 -66.5t12 -119.5 q0 -83 -10 -181q-20 -208 -92 -348q11 -51 37.5 -74.5t56.5 -23.5q44 0 62 38.5t18 86.5q0 31 -2 47l72 4q30 -87 30 -149q0 -109 -69 -150q-35 -23 -78 -23q-30 0 -68 15q-42 17 -71.5 54.5t-40.5 84.5q-35 -50 -79.5 -85t-88 -50t-76 -21t-61.5 -6q-132 0 -220 101 q-12 -167 52 -299q20 -41 49.5 -85.5t43 -71t13.5 -54.5q0 -21 -8 -41q-31 -56 -94 -56q-58 0 -103 45q-86 99 -86 396q0 203 25 356q-25 124 -36 283t-11 225z" />
<glyph unicode="&#xb6;" horiz-adv-x="1366" d="M168 1006q0 77 19.5 143t48.5 109.5t68 78t72 53t66 29.5q74 27 189 27h512v-160h-74v-1628h-172v1628h-240v-1628h-174v940q-83 22 -135 53q-31 20 -58.5 46.5t-57 69t-47 104.5t-17.5 135z" />
<glyph unicode="&#xb7;" horiz-adv-x="382" d="M10 592q0 34 15 70q6 17 18 34t32 36.5t52 31.5t70 12q77 0 127.5 -52.5t50.5 -129.5q0 -40 -19 -80q-17 -34 -61 -68.5t-109 -33.5q-73 2 -125 54.5t-51 125.5z" />
<glyph unicode="&#xb8;" horiz-adv-x="555" d="M-74 -356l217 280l226 -104l-279 -303z" />
<glyph unicode="&#xbb;" horiz-adv-x="937" d="M37 158l242 348l-238 315l152 107l311 -422l-309 -463zM410 825l155 109l316 -428l-320 -465l-147 117l237 348z" />
<glyph unicode="&#xbf;" horiz-adv-x="1150" d="M82 436q0 122 49.5 208.5t106.5 129.5q17 13 37 25t36.5 20t34 15t29 10.5t22 6.5t11.5 3v137h294v-358q-121 -2 -168 -15q-94 -24 -126 -102q-17 -40 -17 -90q0 -45 15 -80q43 -100 157 -100q58 0 101 26t57 65.5t18 102.5h258q0 -119 -18 -182q-11 -35 -28.5 -70 t-52 -75.5t-79 -70.5t-113 -50.5t-149.5 -20.5q-176 0 -299 90q-49 35 -88 86q-90 121 -88 289zM375 1294q1 73 53.5 124.5t124.5 51.5q70 0 123 -53q51 -51 51 -123q0 -74 -51.5 -125t-124.5 -51q-72 0 -124 52t-52 124z" />
<glyph unicode="&#xc0;" horiz-adv-x="1492" d="M-4 0l567 1446h334l594 -1446h-340l-113 293h-600l-106 -293h-336zM455 1745l256 153l266 -268l-148 -110zM537 565h397q-21 58 -61.5 168t-45.5 125q-50 141 -67 200.5t-27 133.5q-8 -61 -14 -88q-17 -73 -82 -256q-89 -253 -100 -283z" />
<glyph unicode="&#xc1;" horiz-adv-x="1492" d="M-4 0l567 1446h334l594 -1446h-340l-113 293h-600l-106 -293h-336zM512 1626l264 266l258 -153l-375 -226zM537 565h397q-21 58 -61.5 168t-45.5 125q-50 141 -67 200.5t-27 133.5q-8 -61 -14 -88q-17 -73 -82 -256q-89 -253 -100 -283z" />
<glyph unicode="&#xc2;" horiz-adv-x="1492" d="M-4 0l567 1446h334l594 -1446h-340l-113 293h-600l-106 -293h-336zM362 1688l386 153l385 -145l-86 -183l-297 113l-304 -113zM537 565h397q-21 58 -61.5 168t-45.5 125q-50 141 -67 200.5t-27 133.5q-8 -61 -14 -88q-17 -73 -82 -256q-89 -253 -100 -283z" />
<glyph unicode="&#xc3;" horiz-adv-x="1492" d="M-4 0l567 1446h334l594 -1446h-340l-113 293h-600l-106 -293h-336zM317 1540q9 82 29.5 140t69.5 104q52 49 125 49q14 0 28.5 -1.5t32.5 -6.5t30 -8t35.5 -11.5t33.5 -12.5t39.5 -16t39.5 -16q64 -22 92 -22q64 0 80 84l211 -2q-12 -160 -94 -240q-40 -35 -68 -43 q-35 -12 -67 -12q-43 0 -85 13t-140 52q-86 33 -105 33q-30 0 -48 -21t-22 -37.5t-4 -27.5zM537 565h397q-21 58 -61.5 168t-45.5 125q-50 141 -67 200.5t-27 133.5q-8 -61 -14 -88q-17 -73 -82 -256q-89 -253 -100 -283z" />
<glyph unicode="&#xc4;" horiz-adv-x="1492" d="M-4 0l567 1446h334l594 -1446h-340l-113 293h-600l-106 -293h-336zM51 1298q0 67 48 114.5t114 47.5q69 0 116.5 -48t47.5 -116q-2 -68 -49.5 -114.5t-114.5 -46.5q-39 0 -69.5 16t-45.5 33q-47 47 -47 114zM537 565h397q-21 58 -61.5 168t-45.5 125q-50 141 -67 200.5 t-27 133.5q-8 -61 -14 -88q-17 -73 -82 -256q-89 -253 -100 -283zM1087 1298q0 67 48 114.5t116 47.5q67 0 114.5 -48t47.5 -116q0 -67 -48 -114t-116 -47q-65 0 -114 49q-48 48 -48 114z" />
<glyph unicode="&#xc5;" horiz-adv-x="1492" d="M-4 0l567 1446h334l594 -1446h-340l-113 293h-600l-106 -293h-336zM520 1696q0 90 63.5 153.5t153.5 63.5q91 -1 154 -65.5t63 -153.5q0 -92 -63.5 -154.5t-153.5 -62.5t-153 63q-64 64 -64 156zM537 565h397q-21 58 -61.5 168t-45.5 125q-50 141 -67 200.5t-27 133.5 q-8 -61 -14 -88q-17 -73 -82 -256q-89 -253 -100 -283zM649 1692q0 -26 27 -62q27 -24 61 -24q37 1 61.5 27t24.5 61q0 37 -25.5 61.5t-62.5 24.5q-35 0 -60.5 -25.5t-25.5 -62.5z" />
<glyph unicode="&#xc6;" horiz-adv-x="1878" d="M0 0l588 1446h876l90 -279h-501l90 -274h444l92 -279h-444l106 -333h461l92 -281h-788l-90 283h-567l-105 -283h-344zM551 553h383l-115 377q-5 16 -23 76.5t-26 93.5q-3 17 -10 49.5t-10 48.5q-11 -80 -26.5 -140.5t-57.5 -183.5z" />
<glyph unicode="&#xc7;" horiz-adv-x="1280" d="M84 723q0 220 88 395q40 78 102 144q106 119 240 170q127 49 274 49q161 0 312 -51q18 -6 114 -48v-356q-32 28 -56.5 46.5t-77 50.5t-117.5 49.5t-136 17.5q-116 0 -204 -49q-37 -21 -72 -53.5t-70.5 -83.5t-57.5 -126t-22 -163q0 -94 29 -180q12 -34 28.5 -66.5 t50 -73.5t75 -70.5t107 -50t143.5 -20.5q57 0 108 10q109 24 201 86l36 27t35 26l-2 -337q-3 -1 -27.5 -11.5t-37 -15.5t-41.5 -15.5t-50.5 -16.5t-54.5 -14t-62.5 -12.5t-66.5 -8t-73 -3.5q-275 0 -455 154q-33 28 -63.5 61.5t-68 90t-64.5 119t-45.5 149t-18.5 180.5z M461 -356l215 280l225 -104l-276 -303z" />
<glyph unicode="&#xc8;" horiz-adv-x="1024" d="M119 0v1446h821v-281h-508v-286h496v-281h-496v-309h506v-289h-819zM219 1745l256 153l266 -268l-145 -110z" />
<glyph unicode="&#xc9;" horiz-adv-x="1024" d="M119 0v1446h821v-281h-508v-286h496v-281h-496v-309h506v-289h-819zM276 1626l265 266l258 -153l-375 -226z" />
<glyph unicode="&#xca;" horiz-adv-x="1024" d="M119 0v1446h821v-281h-508v-286h496v-281h-496v-309h506v-289h-819zM129 1688l383 153l387 -145l-86 -183l-297 113l-303 -113z" />
<glyph unicode="&#xcb;" horiz-adv-x="1024" d="M119 0v1446h821v-281h-508v-286h496v-281h-496v-309h506v-289h-819zM182 1688q0 62 44.5 105.5t105.5 43.5q64 0 106.5 -43.5t42.5 -105.5q0 -63 -43.5 -106.5t-105.5 -43.5q-64 0 -107 45q-43 43 -43 105zM551 1688q0 63 43.5 106t105.5 43q63 0 106.5 -43.5 t43.5 -105.5q-2 -63 -45.5 -106.5t-106.5 -43.5q-61 0 -104 45q-15 13 -29 41t-14 64z" />
<glyph unicode="&#xcc;" horiz-adv-x="555" d="M-14 1745l254 153l268 -268l-148 -110zM117 0v1446h315v-1446h-315z" />
<glyph unicode="&#xcd;" horiz-adv-x="555" d="M43 1626l264 266l258 -153l-377 -226zM117 0v1446h315v-1446h-315z" />
<glyph unicode="&#xce;" horiz-adv-x="555" d="M-106 1688l382 153l388 -145l-86 -183l-297 113l-304 -113zM117 0v1446h315v-1446h-315z" />
<glyph unicode="&#xcf;" horiz-adv-x="555" d="M-53 1688q1 63 45 106t106 43q63 0 105.5 -43.5t42.5 -105.5q0 -63 -43.5 -106.5t-106.5 -43.5q-61 0 -104 45q-15 13 -30 41t-15 64zM117 0v1446h315v-1446h-315zM315 1688q0 62 44.5 105.5t105.5 43.5q63 0 106 -43.5t43 -105.5q0 -63 -43.5 -106.5t-105.5 -43.5 q-64 0 -107 45q-43 43 -43 105z" />
<glyph unicode="&#xd1;" horiz-adv-x="1492" d="M123 0v1446h285l485 -690q84 -121 127 -196.5t86 -164.5q-17 191 -19 264q0 1 -6 197l-6 590h295v-1446h-280l-504 719q-80 113 -131 194q-12 19 -34.5 57t-33.5 56q1 -20 4 -56t5 -65.5t3 -54.5q1 -27 3.5 -79t3.5 -79l14 -692h-297zM317 1540q9 82 29.5 140t69.5 104 q52 49 125 49q14 0 28.5 -1.5t32.5 -6.5t30 -8t35.5 -11.5t33.5 -12.5t39.5 -16t39.5 -16q64 -22 92 -22q64 0 80 84l211 -2q-12 -160 -94 -240q-40 -35 -68 -43q-35 -12 -67 -12q-43 0 -85 13t-140 52q-86 33 -105 33q-30 0 -48 -21t-22 -37.5t-4 -27.5z" />
<glyph unicode="&#xd2;" horiz-adv-x="1705" d="M80 702q0 175 61 326q86 214 277 334.5t426 120.5q92 0 188 -21q256 -58 414 -245q28 -34 54 -75.5t55 -105.5t47 -148t18 -175q0 -167 -61 -314q-60 -146 -169 -245t-244 -145t-294 -46q-286 0 -483 146q-36 27 -69.5 58.5t-75.5 86.5t-72 116t-51 148.5t-21 183.5z M393 719q0 -100 37 -187q54 -133 172 -203.5t266 -70.5q163 0 271 90q81 66 123.5 164.5t42.5 206.5q0 177 -109 307q-19 23 -46 46t-70 50.5t-102 44t-124 15.5q-33 0 -70.5 -5t-101 -28.5t-113.5 -63.5q-26 -21 -51.5 -48.5t-56.5 -73t-50 -109.5t-18 -135zM561 1745 l256 153l266 -268l-147 -110z" />
<glyph unicode="&#xd3;" horiz-adv-x="1705" d="M80 702q0 175 61 326q86 214 277 334.5t426 120.5q92 0 188 -21q256 -58 414 -245q28 -34 54 -75.5t55 -105.5t47 -148t18 -175q0 -167 -61 -314q-60 -146 -169 -245t-244 -145t-294 -46q-286 0 -483 146q-36 27 -69.5 58.5t-75.5 86.5t-72 116t-51 148.5t-21 183.5z M393 719q0 -100 37 -187q54 -133 172 -203.5t266 -70.5q163 0 271 90q81 66 123.5 164.5t42.5 206.5q0 177 -109 307q-19 23 -46 46t-70 50.5t-102 44t-124 15.5q-33 0 -70.5 -5t-101 -28.5t-113.5 -63.5q-26 -21 -51.5 -48.5t-56.5 -73t-50 -109.5t-18 -135zM618 1626 l265 266l258 -153l-375 -226z" />
<glyph unicode="&#xd4;" horiz-adv-x="1705" d="M80 702q0 175 61 326q86 214 277 334.5t426 120.5q92 0 188 -21q256 -58 414 -245q28 -34 54 -75.5t55 -105.5t47 -148t18 -175q0 -167 -61 -314q-60 -146 -169 -245t-244 -145t-294 -46q-286 0 -483 146q-36 27 -69.5 58.5t-75.5 86.5t-72 116t-51 148.5t-21 183.5z M393 719q0 -100 37 -187q54 -133 172 -203.5t266 -70.5q163 0 271 90q81 66 123.5 164.5t42.5 206.5q0 177 -109 307q-19 23 -46 46t-70 50.5t-102 44t-124 15.5q-33 0 -70.5 -5t-101 -28.5t-113.5 -63.5q-26 -21 -51.5 -48.5t-56.5 -73t-50 -109.5t-18 -135zM469 1688 l385 153l385 -145l-86 -183l-297 113l-303 -113z" />
<glyph unicode="&#xd5;" horiz-adv-x="1705" d="M80 702q0 175 61 326q86 214 277 334.5t426 120.5q92 0 188 -21q256 -58 414 -245q28 -34 54 -75.5t55 -105.5t47 -148t18 -175q0 -167 -61 -314q-60 -146 -169 -245t-244 -145t-294 -46q-286 0 -483 146q-36 27 -69.5 58.5t-75.5 86.5t-72 116t-51 148.5t-21 183.5z M393 719q0 -100 37 -187q54 -133 172 -203.5t266 -70.5q163 0 271 90q81 66 123.5 164.5t42.5 206.5q0 177 -109 307q-19 23 -46 46t-70 50.5t-102 44t-124 15.5q-33 0 -70.5 -5t-101 -28.5t-113.5 -63.5q-26 -21 -51.5 -48.5t-56.5 -73t-50 -109.5t-18 -135zM424 1540 q9 83 29 140.5t69 103.5q52 49 125 49q12 0 26 -1.5t25.5 -4t29 -7.5t27.5 -8t31.5 -11t31 -12t34.5 -14l35 -14q64 -22 92 -22q64 0 80 84l211 -2q-12 -160 -94 -240q-32 -32 -68 -43q-35 -12 -68 -12q-43 0 -85 13t-140 52q-86 33 -104 33q-30 0 -48 -21t-22 -37.5 t-4 -27.5z" />
<glyph unicode="&#xd6;" horiz-adv-x="1705" d="M14 1464q0 69 48 116.5t116 47.5t116 -48t48 -116t-48.5 -116t-115.5 -48q-70 0 -117 50q-47 47 -47 114zM80 702q0 175 61 326q86 214 277 334.5t426 120.5q92 0 188 -21q256 -58 414 -245q28 -34 54 -75.5t55 -105.5t47 -148t18 -175q0 -167 -61 -314 q-60 -146 -169 -245t-244 -145t-294 -46q-286 0 -483 146q-36 27 -69.5 58.5t-75.5 86.5t-72 116t-51 148.5t-21 183.5zM393 719q0 -100 37 -187q54 -133 172 -203.5t266 -70.5q163 0 271 90q81 66 123.5 164.5t42.5 206.5q0 177 -109 307q-19 23 -46 46t-70 50.5t-102 44 t-124 15.5q-33 0 -70.5 -5t-101 -28.5t-113.5 -63.5q-26 -21 -51.5 -48.5t-56.5 -73t-50 -109.5t-18 -135zM1360 1464q0 69 48 116.5t116 47.5t116 -48t48 -116t-49 -116t-117 -48t-115 50q-47 47 -47 114z" />
<glyph unicode="&#xd7;" horiz-adv-x="1366" d="M125 225l373 371l-373 375l184 180l373 -371l375 371l182 -180l-371 -375l371 -371l-182 -186l-375 373l-373 -373z" />
<glyph unicode="&#xd8;" horiz-adv-x="1705" d="M47 47l197 199q-47 65 -69.5 102t-45.5 94q-49 132 -49 265q0 134 33 245q50 166 164.5 290t275.5 185q77 28 143 39q94 15 156 15q65 0 152 -15q96 -17 158.5 -45t160.5 -88l166 166l104 -104l-157 -164q1 -1 10 -12.5t18.5 -23.5t22.5 -29.5t22 -32.5 q115 -180 115 -410q0 -93 -25 -195q-39 -173 -167 -311q-154 -166 -367 -219q-119 -29 -219 -29q-215 0 -383 94q-57 33 -111 76l-196 -194zM377 721q0 -62 16 -121t27.5 -81t34.5 -62l659 667q-84 43 -141 56q-58 14 -121 14q-115 0 -209 -43q-126 -56 -196 -172.5 t-70 -257.5zM559 348q66 -40 72 -43q99 -51 225 -51q218 0 365 162q64 71 94 174q14 53 14 123q0 48 -9 95t-17.5 74.5t-28 64t-24.5 43.5t-23 34z" />
<glyph unicode="&#xd9;" horiz-adv-x="1409" d="M121 543v903h307v-893q0 -47 2 -75.5t14 -66t35 -67.5q80 -100 234 -100q63 0 112 17.5t77 47t43 57.5t22 58q9 33 12 119v903h307v-805q-1 -77 -3.5 -122.5t-12 -110.5t-31 -119.5t-55.5 -104.5q-42 -61 -100.5 -105.5t-110.5 -66.5t-113 -34.5t-93.5 -14.5t-66.5 -2 q-115 0 -219.5 32.5t-192.5 106t-128 179.5q-16 41 -25 90.5t-11 82t-3 91.5zM412 1745l256 153l266 -268l-148 -110z" />
<glyph unicode="&#xda;" horiz-adv-x="1409" d="M121 543v903h307v-893q0 -47 2 -75.5t14 -66t35 -67.5q80 -100 234 -100q63 0 112 17.5t77 47t43 57.5t22 58q9 33 12 119v903h307v-805q-1 -77 -3.5 -122.5t-12 -110.5t-31 -119.5t-55.5 -104.5q-42 -61 -100.5 -105.5t-110.5 -66.5t-113 -34.5t-93.5 -14.5t-66.5 -2 q-115 0 -219.5 32.5t-192.5 106t-128 179.5q-16 41 -25 90.5t-11 82t-3 91.5zM469 1626l264 266l258 -153l-375 -226z" />
<glyph unicode="&#xdb;" horiz-adv-x="1409" d="M121 543v903h307v-893q0 -47 2 -75.5t14 -66t35 -67.5q80 -100 234 -100q63 0 112 17.5t77 47t43 57.5t22 58q9 33 12 119v903h307v-805q-1 -77 -3.5 -122.5t-12 -110.5t-31 -119.5t-55.5 -104.5q-42 -61 -100.5 -105.5t-110.5 -66.5t-113 -34.5t-93.5 -14.5t-66.5 -2 q-115 0 -219.5 32.5t-192.5 106t-128 179.5q-16 41 -25 90.5t-11 82t-3 91.5zM322 1688l383 153l385 -145l-86 -183l-295 113l-306 -113z" />
<glyph unicode="&#xdc;" horiz-adv-x="1409" d="M121 543v903h307v-893q0 -47 2 -75.5t14 -66t35 -67.5q80 -100 234 -100q63 0 112 17.5t77 47t43 57.5t22 58q9 33 12 119v903h307v-805q-1 -77 -3.5 -122.5t-12 -110.5t-31 -119.5t-55.5 -104.5q-42 -61 -100.5 -105.5t-110.5 -66.5t-113 -34.5t-93.5 -14.5t-66.5 -2 q-115 0 -219.5 32.5t-192.5 106t-128 179.5q-16 41 -25 90.5t-11 82t-3 91.5zM121 1671q0 69 48 116.5t116 47.5q67 0 115.5 -48.5t48.5 -115.5t-49 -115.5t-117 -48.5q-66 0 -115 49q-47 47 -47 115zM985 1671q0 69 48 116.5t116 47.5q69 0 116.5 -48t47.5 -116 q0 -67 -49 -115.5t-115 -48.5q-68 0 -117 49q-47 47 -47 115z" />
<glyph unicode="&#xdf;" horiz-adv-x="1150" d="M109 0v1018q0 88 4 131q8 124 49 204t139 132q118 63 277 63q97 0 178 -26q122 -41 192 -138t70 -227q0 -162 -113 -256q-34 -29 -84 -53q2 -1 17 -5.5t23.5 -8t25 -10t29 -14.5t28 -18.5t30 -25t27.5 -31.5q32 -38 59 -107.5t27 -158.5q0 -224 -174 -358 q-78 -58 -159 -82q-93 -29 -244 -29l2 250q42 5 57 8q130 15 189 115q35 56 35 125q0 65 -35 118q-17 25 -40.5 43.5t-44.5 28.5t-53 17.5t-52.5 10.5t-57.5 7v219q74 7 119.5 28t72.5 77q27 63 27 112q0 72 -44.5 119.5t-117.5 48.5q-55 -2 -92 -29q-22 -14 -37 -34.5 t-22.5 -39t-11.5 -47.5t-4.5 -45.5t-0.5 -48.5v-1083h-290z" />
<glyph unicode="&#xe0;" d="M70 442q0 228 139 365q111 108 283 108q140 0 231 -73q27 -21 70 -72v123h288v-893h-286v88q-6 -5 -18.5 -15.5t-23 -19t-20.5 -14.5q-107 -72 -246 -72q-96 0 -172 37q-121 56 -183 176t-62 262zM330 1276l227 170l289 -334l-166 -113zM375 442q0 -145 102 -209 q45 -34 121 -34q96 0 154.5 68.5t58.5 164.5q0 100 -62 170t-161 70q-98 0 -160 -72q-53 -61 -53 -158z" />
<glyph unicode="&#xe1;" d="M70 442q0 228 139 365q111 108 283 108q140 0 231 -73q27 -21 70 -72v123h288v-893h-286v88q-6 -5 -18.5 -15.5t-23 -19t-20.5 -14.5q-107 -72 -246 -72q-96 0 -172 37q-121 56 -183 176t-62 262zM342 1112l289 334l227 -170l-350 -277zM375 442q0 -145 102 -209 q45 -34 121 -34q96 0 154.5 68.5t58.5 164.5q0 100 -62 170t-161 70q-98 0 -160 -72q-53 -61 -53 -158z" />
<glyph unicode="&#xe2;" d="M70 442q0 228 139 365q111 108 283 108q140 0 231 -73q27 -21 70 -72v123h288v-893h-286v88q-6 -5 -18.5 -15.5t-23 -19t-20.5 -14.5q-107 -72 -246 -72q-96 0 -172 37q-121 56 -183 176t-62 262zM197 1184l397 276l371 -272l-127 -170l-256 174l-250 -176zM375 442 q0 -145 102 -209q45 -34 121 -34q96 0 154.5 68.5t58.5 164.5q0 100 -62 170t-161 70q-98 0 -160 -72q-53 -61 -53 -158z" />
<glyph unicode="&#xe3;" d="M70 442q0 228 139 365q111 108 283 108q140 0 231 -73q27 -21 70 -72v123h288v-893h-286v88q-6 -5 -18.5 -15.5t-23 -19t-20.5 -14.5q-107 -72 -246 -72q-96 0 -172 37q-121 56 -183 176t-62 262zM168 1063q9 84 29 142t69 104q53 47 125 47q16 0 35.5 -3t34.5 -6.5 t40 -12t38.5 -13.5t45.5 -17.5t46 -17.5q58 -24 92 -24q64 0 80 84h211q-12 -162 -94 -240q-25 -29 -68 -45q-29 -10 -68 -10q-43 0 -85 13t-140 52q-86 33 -104 33q-30 -1 -48 -22t-22 -37.5t-4 -26.5h-213zM375 442q0 -145 102 -209q45 -34 121 -34q96 0 154.5 68.5 t58.5 164.5q0 100 -62 170t-161 70q-98 0 -160 -72q-53 -61 -53 -158z" />
<glyph unicode="&#xe4;" d="M70 442q0 228 139 365q111 108 283 108q140 0 231 -73q27 -21 70 -72v123h288v-893h-286v88q-6 -5 -18.5 -15.5t-23 -19t-20.5 -14.5q-107 -72 -246 -72q-96 0 -172 37q-121 56 -183 176t-62 262zM238 1225q0 67 47.5 114t113.5 47q67 0 114.5 -47.5t47.5 -115.5 q0 -67 -47.5 -113.5t-114.5 -46.5t-114 47t-47 115zM375 442q0 -145 102 -209q45 -34 121 -34q96 0 154.5 68.5t58.5 164.5q0 100 -62 170t-161 70q-98 0 -160 -72q-53 -61 -53 -158zM674 1225q0 67 48 114t114 47q67 0 114 -47.5t47 -115.5q0 -67 -47.5 -113.5 t-113.5 -46.5q-68 0 -115 47t-47 115z" />
<glyph unicode="&#xe5;" d="M70 442q0 228 139 365q111 108 283 108q140 0 231 -73q27 -21 70 -72v123h288v-893h-286v88q-6 -5 -18.5 -15.5t-23 -19t-20.5 -14.5q-107 -72 -246 -72q-96 0 -172 37q-121 56 -183 176t-62 262zM375 442q0 -145 102 -209q45 -34 121 -34q96 0 154.5 68.5t58.5 164.5 q0 100 -62 170t-161 70q-98 0 -160 -72q-53 -61 -53 -158zM399 1235q0 90 63.5 153.5t153.5 63.5t154 -64.5t64 -154.5t-64 -153.5t-154 -63.5t-155 63q-62 65 -62 156zM528 1233q0 -22 9 -38.5t18 -23.5q24 -24 61 -24q36 0 61 25t25 61t-26 61t-62 25q-35 0 -60.5 -25.5 t-25.5 -60.5z" />
<glyph unicode="&#xe6;" horiz-adv-x="1662" d="M49 252q0 45 11.5 86t40 80t72 67.5t111.5 46t154 17.5t230 -27q-14 32 -22.5 48t-24.5 36t-37 37q-71 53 -170 53q-54 0 -107.5 -14t-154.5 -53l-5 231l29 10q30 9 53.5 15.5t60.5 15.5t75.5 14t74.5 5q124 0 219 -54q42 -22 101 -78q9 7 22.5 19t24 20.5t20.5 14.5 q40 26 114.5 50t170.5 23q128 0 213 -34q31 -13 60.5 -31.5t67.5 -51t68.5 -85t47.5 -117.5q20 -66 20 -207h-704q14 -56 37 -94q31 -51 87 -79t117 -28q39 1 71 11t55.5 30t33.5 31t25 31l231 -109q-21 -31 -41 -55t-57.5 -55t-79 -51.5t-104 -35t-134.5 -14.5 q-70 0 -125.5 10t-99 32.5t-66.5 38t-59 44.5q-32 -32 -71 -57q-114 -72 -289 -72q-154 0 -246 60q-58 36 -89.5 96t-31.5 129zM332 262q7 -35 18 -49q34 -45 133 -45q77 0 115.5 26.5t38.5 71.5q0 30 -19 51q-33 45 -133 45q-42 0 -75 -10q-1 0 -8 -3t-13 -6.5t-14.5 -8.5 t-15.5 -12t-13.5 -15.5t-10 -20t-3.5 -24.5zM895 567l416 2q-25 51 -31 60q-19 33 -65 65.5t-113 32.5q-46 -1 -86.5 -20.5t-58.5 -38t-31 -37.5q-16 -27 -31 -64z" />
<glyph unicode="&#xe7;" horiz-adv-x="894" d="M66 440q0 166 96 295q135 187 397 187q51 0 100.5 -8.5t76 -16.5t75.5 -25v-262q-2 1 -15.5 7.5t-22 10t-25.5 10t-31.5 11t-33.5 9t-39 6.5t-40 2q-101 0 -168 -59.5t-67 -160.5q0 -44 16 -86q7 -21 21.5 -43.5t39.5 -47t65.5 -40.5t90.5 -16q22 0 43 3t40 9.5t34 12 t31.5 15t25 14t22 14t15.5 10.5l-2 -262l-22 -9q-22 -8 -43 -15t-54 -15.5t-72.5 -13.5t-80.5 -5q-191 0 -316 107q-26 22 -49.5 50.5t-49.5 73t-42 106.5t-16 132zM268 -356l217 280l224 -104l-277 -303z" />
<glyph unicode="&#xe8;" horiz-adv-x="1067" d="M78 446q0 126 51 230q54 121 176 190q115 62 240 62q60 0 139 -19q61 -17 111 -47t81 -61t55.5 -69.5t35.5 -65t20 -54.5q20 -83 17 -227h-648q11 -58 29 -90q26 -49 73 -75.5t103 -26.5q114 0 182 114l236 -112q-3 -3 -12.5 -17.5t-20.5 -29t-26 -29.5 q-142 -148 -365 -148q-81 0 -151.5 20t-119 53.5t-79.5 64t-53 63.5q-74 110 -74 274zM264 1276l230 170l288 -334l-166 -113zM356 555h367q-2 14 -7 30t-15.5 40t-31 46t-46.5 36q-35 20 -86 20q-107 0 -158 -100q-13 -34 -23 -72z" />
<glyph unicode="&#xe9;" horiz-adv-x="1067" d="M78 446q0 126 51 230q54 121 176 190q115 62 240 62q60 0 139 -19q61 -17 111 -47t81 -61t55.5 -69.5t35.5 -65t20 -54.5q20 -83 17 -227h-648q11 -58 29 -90q26 -49 73 -75.5t103 -26.5q114 0 182 114l236 -112q-3 -3 -12.5 -17.5t-20.5 -29t-26 -29.5 q-142 -148 -365 -148q-81 0 -151.5 20t-119 53.5t-79.5 64t-53 63.5q-74 110 -74 274zM279 1112l286 334l230 -170l-351 -277zM356 555h367q-2 14 -7 30t-15.5 40t-31 46t-46.5 36q-35 20 -86 20q-107 0 -158 -100q-13 -34 -23 -72z" />
<glyph unicode="&#xea;" horiz-adv-x="1067" d="M78 446q0 126 51 230q54 121 176 190q115 62 240 62q60 0 139 -19q61 -17 111 -47t81 -61t55.5 -69.5t35.5 -65t20 -54.5q20 -83 17 -227h-648q11 -58 29 -90q26 -49 73 -75.5t103 -26.5q114 0 182 114l236 -112q-3 -3 -12.5 -17.5t-20.5 -29t-26 -29.5 q-142 -148 -365 -148q-81 0 -151.5 20t-119 53.5t-79.5 64t-53 63.5q-74 110 -74 274zM154 1184l397 276l371 -272l-127 -170l-256 174l-250 -176zM356 555h367q-2 14 -7 30t-15.5 40t-31 46t-46.5 36q-35 20 -86 20q-107 0 -158 -100q-13 -34 -23 -72z" />
<glyph unicode="&#xeb;" horiz-adv-x="1067" d="M78 446q0 126 51 230q54 121 176 190q115 62 240 62q60 0 139 -19q61 -17 111 -47t81 -61t55.5 -69.5t35.5 -65t20 -54.5q20 -83 17 -227h-648q11 -58 29 -90q26 -49 73 -75.5t103 -26.5q114 0 182 114l236 -112q-3 -3 -12.5 -17.5t-20.5 -29t-26 -29.5 q-142 -148 -365 -148q-81 0 -151.5 20t-119 53.5t-79.5 64t-53 63.5q-74 110 -74 274zM178 1233q0 67 47 114.5t115 47.5q67 0 114.5 -48t47.5 -114q-1 -68 -49 -115t-115 -47q-66 0 -115 47q-45 47 -45 115zM356 555h367q-2 14 -7 30t-15.5 40t-31 46t-46.5 36 q-35 20 -86 20q-107 0 -158 -100q-13 -34 -23 -72zM614 1233q0 67 47 114.5t115 47.5q67 0 114.5 -48t47.5 -114q0 -68 -48.5 -115t-115.5 -47q-66 0 -115 47q-45 47 -45 115z" />
<glyph unicode="&#xec;" horiz-adv-x="512" d="M-12 1276l229 170l289 -334l-166 -113zM111 0v891h292v-891h-292z" />
<glyph unicode="&#xed;" horiz-adv-x="512" d="M0 1112l289 334l227 -170l-348 -277zM111 0v891h292v-891h-292z" />
<glyph unicode="&#xee;" horiz-adv-x="512" d="M-145 1184l399 276l369 -272l-127 -170l-256 174l-248 -176zM111 0v891h292v-891h-292z" />
<glyph unicode="&#xef;" horiz-adv-x="512" d="M-121 1233q0 67 47.5 114.5t114.5 47.5t114.5 -48t47.5 -114q0 -68 -48 -115t-116 -47q-66 0 -115 47q-45 47 -45 115zM111 0v891h292v-891h-292zM315 1233q0 67 47.5 114.5t114.5 47.5t114.5 -48t47.5 -114q0 -68 -48 -115t-116 -47q-66 0 -113 47t-47 115z" />
<glyph unicode="&#xf1;" horiz-adv-x="1110" d="M111 0v891h290v-117l32.5 32.5t42.5 35t62 40t72 25t92 11.5q93 0 156.5 -35.5t93.5 -79.5q32 -49 42 -103.5t10 -128.5v-571h-291v489q0 34 -2 55.5t-13 49.5t-32 47q-37 31 -93 31q-61 0 -104 -35q-45 -33 -58.5 -79.5t-13.5 -113.5v-444h-286zM127 1063q7 83 27 141 t69 105q53 47 125 47q17 0 37 -3t33.5 -6t41 -12.5t37.5 -13.5t46 -18t45 -17q58 -24 92 -24q64 0 80 84h213q0 -1 -2 -17.5t-4 -28.5t-6.5 -34t-11.5 -41t-16.5 -40.5t-24 -42t-31.5 -36.5q-25 -29 -68 -45q-29 -10 -68 -10q-43 0 -85 13t-138 52q-90 33 -106 33 q-14 0 -25 -4.5t-18.5 -12t-13 -15.5t-8.5 -17.5t-5 -16t-3 -13.5l-1 -7h-211z" />
<glyph unicode="&#xf2;" horiz-adv-x="1150" d="M72 449q0 65 14 123t34.5 98t49.5 75t52.5 55.5t49.5 37.5q125 86 291 88q84 1 157.5 -18t124.5 -51.5t84.5 -62.5t57.5 -63q92 -122 92 -285q0 -103 -43 -198q-60 -134 -182.5 -207.5t-273.5 -73.5q-146 0 -269 66q-63 39 -90 65q-149 132 -149 351zM307 1276l230 170 l288 -334l-166 -113zM365 442q0 -51 18 -94q25 -58 77 -92.5t115 -34.5q91 0 149 66.5t58 158.5q0 93 -58.5 160t-150.5 66q-56 -6 -96 -27q-55 -30 -83.5 -84t-28.5 -119z" />
<glyph unicode="&#xf3;" horiz-adv-x="1150" d="M72 449q0 65 14 123t34.5 98t49.5 75t52.5 55.5t49.5 37.5q125 86 291 88q84 1 157.5 -18t124.5 -51.5t84.5 -62.5t57.5 -63q92 -122 92 -285q0 -103 -43 -198q-60 -134 -182.5 -207.5t-273.5 -73.5q-146 0 -269 66q-63 39 -90 65q-149 132 -149 351zM319 1112l289 334 l228 -170l-349 -277zM365 442q0 -51 18 -94q25 -58 77 -92.5t115 -34.5q91 0 149 66.5t58 158.5q0 93 -58.5 160t-150.5 66q-56 -6 -96 -27q-55 -30 -83.5 -84t-28.5 -119z" />
<glyph unicode="&#xf4;" horiz-adv-x="1150" d="M72 449q0 65 14 123t34.5 98t49.5 75t52.5 55.5t49.5 37.5q125 86 291 88q84 1 157.5 -18t124.5 -51.5t84.5 -62.5t57.5 -63q92 -122 92 -285q0 -103 -43 -198q-60 -134 -182.5 -207.5t-273.5 -73.5q-146 0 -269 66q-63 39 -90 65q-149 132 -149 351zM174 1184l399 276 l369 -272l-127 -170l-256 174l-248 -176zM365 442q0 -51 18 -94q25 -58 77 -92.5t115 -34.5q91 0 149 66.5t58 158.5q0 93 -58.5 160t-150.5 66q-56 -6 -96 -27q-55 -30 -83.5 -84t-28.5 -119z" />
<glyph unicode="&#xf5;" horiz-adv-x="1150" d="M72 449q0 65 14 123t34.5 98t49.5 75t52.5 55.5t49.5 37.5q125 86 291 88q84 1 157.5 -18t124.5 -51.5t84.5 -62.5t57.5 -63q92 -122 92 -285q0 -103 -43 -198q-60 -134 -182.5 -207.5t-273.5 -73.5q-146 0 -269 66q-63 39 -90 65q-149 132 -149 351zM147 1063 q9 85 29 142.5t70 103.5q50 47 125 47q16 0 35.5 -3t34 -6.5t40 -12t37.5 -13.5t45 -17.5t45 -17.5q58 -24 92 -24q69 0 80 84h213q0 -1 -2 -17t-4 -28.5t-6.5 -34.5t-11.5 -41t-16 -40.5t-23 -42t-31 -36.5q-32 -32 -70 -45q-25 -10 -67 -10t-83.5 13t-139.5 52 q-86 33 -107 33q-14 0 -25 -4.5t-18.5 -12t-13 -15.5t-8.5 -17.5t-5 -16t-3 -13.5l-1 -7h-211zM365 442q0 -51 18 -94q25 -58 77 -92.5t115 -34.5q91 0 149 66.5t58 158.5q0 93 -58.5 160t-150.5 66q-56 -6 -96 -27q-55 -30 -83.5 -84t-28.5 -119z" />
<glyph unicode="&#xf6;" horiz-adv-x="1150" d="M72 449q0 65 14 123t34.5 98t49.5 75t52.5 55.5t49.5 37.5q125 86 291 88q84 1 157.5 -18t124.5 -51.5t84.5 -62.5t57.5 -63q92 -122 92 -285q0 -103 -43 -198q-60 -134 -182.5 -207.5t-273.5 -73.5q-146 0 -269 66q-63 39 -90 65q-149 132 -149 351zM195 1225 q0 67 47.5 114t113.5 47q67 0 114.5 -47.5t47.5 -115.5q0 -67 -47.5 -113.5t-114.5 -46.5t-114 47t-47 115zM365 442q0 -51 18 -94q25 -58 77 -92.5t115 -34.5q91 0 149 66.5t58 158.5q0 93 -58.5 160t-150.5 66q-56 -6 -96 -27q-55 -30 -83.5 -84t-28.5 -119zM631 1225 q0 67 48 114t114 47q67 0 114 -47.5t47 -115.5q0 -67 -47.5 -113.5t-113.5 -46.5q-68 0 -115 47t-47 115z" />
<glyph unicode="&#xf7;" horiz-adv-x="1366" d="M0 465v260h1366v-260h-1366zM518 225q0 69 47.5 117.5t116.5 48.5t117.5 -48t48.5 -118q-2 -69 -49.5 -116t-116.5 -46q-70 0 -117.5 46t-46.5 116zM518 961q0 36 12 67q20 45 61 70.5t91 27.5q70 -2 118 -50t48 -118q-2 -68 -49.5 -114.5t-116.5 -46.5t-117 47.5 t-47 116.5z" />
<glyph unicode="&#xf8;" horiz-adv-x="1150" d="M59 86l93 82q-16 26 -21 35t-20.5 41.5t-22 57t-13.5 64t-7 80.5q0 124 51 226q60 121 184.5 190.5t265.5 69.5q125 0 230 -47q28 -10 94 -54l92 84l90 -100l-86 -76q2 -3 11 -18.5t13 -22.5t13 -24t13.5 -28.5t12 -30t11.5 -36t8 -38.5t6 -44t2 -48q0 -125 -57 -236 q-37 -59 -68 -92q-54 -60 -123 -96q-58 -30 -129 -45q-76 -17 -133 -17q-28 0 -55.5 2.5t-52 8t-45.5 11t-42 14.5t-35.5 15t-32 16.5t-25.5 15t-22.5 14t-16.5 10.5l-92 -84zM340 459q0 -46 16 -107l338 303q-68 41 -135 41q-100 0 -159.5 -68.5t-59.5 -168.5zM440 246 q80 -45 148 -43q58 0 98 20q123 68 121 223q0 64 -21 111z" />
<glyph unicode="&#xf9;" horiz-adv-x="1110" d="M102 455v440h291v-461q0 -69 13 -114.5t57 -77.5q42 -29 98 -29q52 3 90 27q42 30 55 75t13 111v469h289v-469q0 -69 -3 -110t-19.5 -96.5t-49.5 -98.5q-34 -43 -80.5 -74.5t-87 -46.5t-87.5 -23.5t-70.5 -10t-47.5 -1.5q-67 0 -131.5 13.5t-125 41.5t-107.5 76.5 t-70 112.5q-17 44 -22 95t-5 151zM287 1276l227 170l289 -334l-166 -113z" />
<glyph unicode="&#xfa;" horiz-adv-x="1110" d="M102 455v440h291v-461q0 -69 13 -114.5t57 -77.5q42 -29 98 -29q52 3 90 27q42 30 55 75t13 111v469h289v-469q0 -69 -3 -110t-19.5 -96.5t-49.5 -98.5q-34 -43 -80.5 -74.5t-87 -46.5t-87.5 -23.5t-70.5 -10t-47.5 -1.5q-67 0 -131.5 13.5t-125 41.5t-107.5 76.5 t-70 112.5q-17 44 -22 95t-5 151zM299 1112l289 334l227 -170l-348 -277z" />
<glyph unicode="&#xfb;" horiz-adv-x="1110" d="M102 455v440h291v-461q0 -69 13 -114.5t57 -77.5q42 -29 98 -29q52 3 90 27q42 30 55 75t13 111v469h289v-469q0 -69 -3 -110t-19.5 -96.5t-49.5 -98.5q-34 -43 -80.5 -74.5t-87 -46.5t-87.5 -23.5t-70.5 -10t-47.5 -1.5q-67 0 -131.5 13.5t-125 41.5t-107.5 76.5 t-70 112.5q-17 44 -22 95t-5 151zM154 1184l397 276l371 -272l-127 -170l-256 174l-250 -176z" />
<glyph unicode="&#xfc;" horiz-adv-x="1110" d="M102 455v440h291v-461q0 -69 13 -114.5t57 -77.5q42 -29 98 -29q52 3 90 27q42 30 55 75t13 111v469h289v-469q0 -69 -3 -110t-19.5 -96.5t-49.5 -98.5q-34 -43 -80.5 -74.5t-87 -46.5t-87.5 -23.5t-70.5 -10t-47.5 -1.5q-67 0 -131.5 13.5t-125 41.5t-107.5 76.5 t-70 112.5q-17 44 -22 95t-5 151zM178 1225q0 67 47 114t115 47q67 0 114.5 -47.5t47.5 -115.5q-1 -67 -49.5 -113.5t-114.5 -46.5t-115 47q-45 47 -45 115zM614 1225q0 67 47 114t115 47q67 0 114.5 -47.5t47.5 -115.5q0 -67 -48.5 -113.5t-115.5 -46.5q-66 0 -115 47 q-45 47 -45 115z" />
<glyph unicode="&#xff;" horiz-adv-x="1110" d="M-6 891h325l160 -399q19 -45 39 -103q30 -102 35 -123q53 141 111 279l143 348h303l-569 -1309h-310l177 398zM178 1233q0 67 47 114.5t115 47.5q67 0 114.5 -48t47.5 -114q-1 -68 -49 -115t-115 -47q-66 0 -115 47q-45 47 -45 115zM614 1233q0 67 47 114.5t115 47.5 q67 0 114.5 -48t47.5 -114q0 -68 -48.5 -115t-115.5 -47q-66 0 -115 47q-45 47 -45 115z" />
<glyph unicode="&#x152;" horiz-adv-x="2174" d="M70 698q0 124 24 220q71 270 285 419q189 133 446 133q194 0 332 -77q45 -27 92 -64v117h836v-281h-537v-293h525v-282h-523v-311h537v-279h-838v123q-46 -32 -63 -41q-165 -100 -375 -100q-302 0 -506 180q-167 146 -217 364q-18 74 -18 172zM393 727q0 -69 16 -130 t39.5 -103t55.5 -77t59 -55t55 -34q39 -20 105 -37q60 -12 123 -12q93 0 164 28q33 13 64.5 31t69 52t64.5 76.5t45.5 107t18.5 139.5q0 148 -76 260q-21 29 -47.5 56t-70.5 60t-107.5 53t-136.5 21q-197 0 -322 -127q-119 -124 -119 -309z" />
<glyph unicode="&#x153;" horiz-adv-x="1792" d="M66 444q0 96 36 201q52 127 166.5 200t253.5 73q158 0 279 -78q17 -10 82 -66q52 46 80 64q120 82 294 82q170 0 293.5 -88t163.5 -250q17 -70 17 -187l-705 -2q29 -65 41 -84q11 -16 26 -31.5t40.5 -34.5t61.5 -30.5t77 -11.5q36 0 67.5 8.5t56 25.5t35 26t27.5 26 l230 -113q-26 -32 -47.5 -53.5t-60.5 -52t-94 -52.5t-122 -34q-63 -11 -113 -11q-64 0 -127 15q-74 17 -121 46t-114 89q-31 -30 -52.5 -47.5t-66.5 -45.5t-103.5 -42.5t-127.5 -14.5q-137 0 -242 56q-37 20 -72.5 50.5t-73.5 79.5t-61.5 124t-23.5 163zM342 442 q0 -49 14 -88q25 -66 84 -107.5t129 -41.5q46 0 88 18q131 59 131 219q0 49 -12 88q-24 70 -86.5 110t-136.5 38q-94 -1 -152.5 -70t-58.5 -166zM1042 569l422 2l-30 60q-67 98 -189 98q-89 0 -147 -61q-32 -36 -56 -99z" />
<glyph unicode="&#x178;" horiz-adv-x="1280" d="M6 1446h365l272 -553l287 553h352l-481 -787v-659h-316v647zM311 1688q0 63 44 106t106 43q63 0 106 -43.5t43 -105.5q-2 -63 -45 -106.5t-106 -43.5q-62 0 -105 45q-15 13 -29 41t-14 64zM678 1688q0 62 44 105.5t105 43.5q64 0 107 -43.5t43 -105.5q0 -63 -44 -106.5 t-106 -43.5q-63 0 -106 45q-43 43 -43 105z" />
<glyph unicode="&#x2c6;" horiz-adv-x="555" d="M-295 1184l399 276l369 -272l-127 -170l-256 174l-248 -176z" />
<glyph unicode="&#x2dc;" horiz-adv-x="555" d="M-322 1063q9 85 29 142.5t70 103.5q50 47 123 47q17 0 36.5 -3t34 -6.5t40.5 -12.5t37.5 -13t45.5 -17.5t45 -17.5q58 -24 92 -24q22 0 37.5 8t24 23t12 26t6.5 27h213q0 -1 -2 -17t-4 -28.5t-6.5 -34.5t-11.5 -41t-16 -40.5t-23 -42t-31 -36.5q-32 -32 -70 -45 q-25 -10 -67 -10q-30 0 -64.5 8.5t-60 18t-98.5 38.5q-86 33 -107 33q-14 0 -25 -4.5t-18.5 -12t-13 -15.5t-8.5 -17.5t-5 -16t-3 -13.5l-1 -7h-211z" />
<glyph unicode="&#x2000;" horiz-adv-x="956" />
<glyph unicode="&#x2001;" horiz-adv-x="1913" />
<glyph unicode="&#x2002;" horiz-adv-x="956" />
<glyph unicode="&#x2003;" horiz-adv-x="1913" />
<glyph unicode="&#x2004;" horiz-adv-x="637" />
<glyph unicode="&#x2005;" horiz-adv-x="478" />
<glyph unicode="&#x2006;" horiz-adv-x="318" />
<glyph unicode="&#x2007;" horiz-adv-x="318" />
<glyph unicode="&#x2008;" horiz-adv-x="239" />
<glyph unicode="&#x2009;" horiz-adv-x="382" />
<glyph unicode="&#x200a;" horiz-adv-x="106" />
<glyph unicode="&#x2010;" horiz-adv-x="768" d="M82 391v244h604v-244h-604z" />
<glyph unicode="&#x2011;" horiz-adv-x="768" d="M82 391v244h604v-244h-604z" />
<glyph unicode="&#x2012;" horiz-adv-x="768" d="M82 391v244h604v-244h-604z" />
<glyph unicode="&#x2013;" d="M76 395v242h1044v-242h-1044z" />
<glyph unicode="&#x2014;" horiz-adv-x="1366" d="M0 465v260h1366v-260h-1366z" />
<glyph unicode="&#x2018;" horiz-adv-x="512" d="M25 825l247 631h179l-127 -631h-299z" />
<glyph unicode="&#x2019;" horiz-adv-x="512" d="M74 1130v316h342v-184q0 -86 -11.5 -128.5t-54.5 -123.5l-100 -187l-154 54l117 253h-139z" />
<glyph unicode="&#x201a;" horiz-adv-x="512" d="M61 -289l123 631h303l-251 -631h-175z" />
<glyph unicode="&#x201c;" horiz-adv-x="894" d="M27 846l262 600h178l-145 -600h-295zM410 844l254 602h184l-150 -602h-288z" />
<glyph unicode="&#x201d;" horiz-adv-x="894" d="M59 838l136 608h294l-247 -608h-183zM436 838l133 608h299l-247 -608h-185z" />
<glyph unicode="&#x201e;" horiz-adv-x="894" d="M45 -297l150 606h290l-254 -606h-186zM428 -297l143 604h297l-262 -604h-178z" />
<glyph unicode="&#x2022;" horiz-adv-x="681" d="M25 723q0 132 94.5 224.5t226.5 92.5q71 0 135 -28q28 -14 54 -34t56.5 -54t49 -87t18.5 -116q0 -76 -26 -133q-36 -88 -113 -136.5t-172 -48.5q-72 0 -139 29q-83 38 -133.5 118t-50.5 173z" />
<glyph unicode="&#x2026;" horiz-adv-x="2048" d="M178 152q0 68 48.5 115.5t117.5 47.5q67 0 113.5 -46.5t46.5 -114.5q0 -70 -46 -118t-116 -48q-30 0 -57 10q-15 6 -30.5 16t-34 27.5t-30.5 46.5t-12 64zM862 152q0 39 15 69q20 43 61 68.5t88 25.5q67 0 113.5 -46.5t48.5 -114.5q0 -69 -46.5 -117.5t-115.5 -48.5 q-30 0 -55 10q-51 17 -80 58t-29 96zM1544 152q0 67 48 115t116 48t115 -47t47 -114q0 -69 -46.5 -117.5t-115.5 -48.5q-30 0 -57 10q-22 8 -43 22.5t-42.5 50t-21.5 81.5z" />
<glyph unicode="&#x202f;" horiz-adv-x="382" />
<glyph unicode="&#x205f;" horiz-adv-x="478" />
<glyph unicode="&#x2122;" horiz-adv-x="1409" d="M0 1309v137h588v-137h-205v-543h-174v543h-209zM643 766v680h217l156 -490l145 490h219v-680h-168l9 362q3 70 12 138q-6 -20 -16 -58.5t-13 -50.5l-114 -391h-154l-121 393q-2 9 -7.5 24.5t-6.5 20.5q-7 38 -15 60q13 -101 15 -136l10 -362h-168z" />
<glyph unicode="&#x25fc;" horiz-adv-x="890" d="M0 0v891h891v-891h-891z" />
<glyph unicode="&#xfb01;" horiz-adv-x="1110" d="M-4 676v215h121v121q0 160 2 190q9 125 38 189q73 158 300 157q80 0 164 -14v-242q-44 6 -84 6q-61 0 -88 -20q-20 -17 -30 -49t-11.5 -61t-1.5 -93v-184h202v-215h-205v-676h-286v676h-121zM682 1231q0 72 51.5 123t122.5 51q72 -1 123 -53t51 -123t-51.5 -121.5 t-122.5 -50.5q-72 0 -123 51q-51 48 -51 123zM709 0v891h292v-891h-292z" />
<glyph unicode="&#xfb02;" horiz-adv-x="1110" d="M-4 676v215h121v121q0 160 2 190q9 125 38 189q73 158 300 157q80 0 164 -14v-242q-44 6 -84 6q-61 0 -88 -20q-20 -17 -30 -49t-11.5 -61t-1.5 -93v-184h202v-215h-205v-676h-286v676h-121zM709 0v1528h292v-1528h-292z" />
</font>
</defs>
</svg>
